<svg version="1.1" viewBox="0.0 0.0 413.0 550.0" fill="none" stroke="none" stroke-linecap="square" stroke-miterlimit="10" width="413" height="550" xmlns:xlink="http://www.w3.org/1999/xlink" xmlns="http://www.w3.org/2000/svg"><path fill="#ffffff" d="M0 0L413.0 0L413.0 550.0L0 550.0L0 0Z" fill-rule="nonzero"/><path fill="#ffffff" d="M0.5 31.615635L413.0 31.615635L413.0 550.0L0.5 550.0L0.5 31.615635Z" fill-rule="nonzero"/><path stroke="#cccccc" stroke-width="1.0" stroke-linecap="butt" d="M207.0 291.0C207.0 291.0 207.0 291.0 207.0 291.0C207.0 291.0 207.0 291.0 207.0 291.0C207.0 291.0 207.0 291.0 207.0 291.0C207.0 291.0 207.0 291.0 207.0 291.0" fill-rule="nonzero"/><path fill="#000000" d="M204.0625 284.35938Q204.0625 286.26562 203.40625 287.20312Q202.76562 288.125 201.375 288.125Q200.01562 288.125 199.35938 287.21875Q198.70312 286.3125 198.67188 284.5L198.67188 283.0625Q198.67188 281.17188 199.3125 280.26562Q199.96875 279.34375 201.35938 279.34375Q202.73438 279.34375 203.39062 280.23438Q204.04688 281.10938 204.0625 282.95312L204.0625 284.35938ZM202.96875 282.875Q202.96875 281.5 202.57812 280.875Q202.20312 280.23438 201.35938 280.23438Q200.53125 280.23438 200.14062 280.875Q199.76562 281.5 199.76562 282.79688L199.76562 284.53125Q199.76562 285.90625 200.15625 286.57812Q200.5625 287.23438 201.375 287.23438Q202.17188 287.23438 202.5625 286.60938Q202.95312 285.98438 202.96875 284.65625L202.96875 282.875Z" fill-rule="nonzero"/><path stroke="#cccccc" stroke-width="1.0" stroke-linecap="butt" d="M239.64757 291.0C239.64757 272.96924 225.03075 258.35245 207.0 258.35245C188.96925 258.35245 174.35243 272.96924 174.35243 291.0C174.35243 309.03076 188.96925 323.64755 207.0 323.64755C225.03075 323.64755 239.64757 309.03076 239.64757 291.0" fill-rule="nonzero"/><path fill="#000000" d="M202.26562 255.35243L201.1875 255.35243L201.1875 248.13368L199.0 248.93056L199.0 247.94618L202.10938 246.7743L202.26562 246.7743L202.26562 255.35243Z" fill-rule="nonzero"/><path stroke="#cccccc" stroke-width="1.0" stroke-linecap="butt" d="M272.29514 291.0C272.29514 254.9385 243.0615 225.70488 207.0 225.70488C170.9385 225.70488 141.70488 254.9385 141.70488 291.0C141.70488 327.0615 170.9385 356.29514 207.0 356.29514C243.0615 356.29514 272.29514 327.0615 272.29514 291.0" fill-rule="nonzero"/><path fill="#000000" d="M204.29688 222.70488L198.70312 222.70488L198.70312 221.92363L201.65625 218.64238Q202.3125 217.89238 202.5625 217.43925Q202.8125 216.9705 202.8125 216.4705Q202.8125 215.79863 202.40625 215.37675Q202.01562 214.93925 201.32812 214.93925Q200.53125 214.93925 200.07812 215.408Q199.625 215.86113 199.625 216.68925L198.54688 216.68925Q198.54688 215.50175 199.29688 214.783Q200.0625 214.04863 201.32812 214.04863Q202.53125 214.04863 203.21875 214.67363Q203.90625 215.29863 203.90625 216.3455Q203.90625 217.5955 202.29688 219.3455L200.01562 221.81425L204.29688 221.81425L204.29688 222.70488Z" fill-rule="nonzero"/><path stroke="#cccccc" stroke-width="1.0" stroke-linecap="butt" d="M304.9427 291.0C304.9427 236.90775 261.09225 193.05731 207.0 193.05731C152.90775 193.05731 109.05732 236.90775 109.05732 291.0C109.05732 345.09225 152.90775 388.9427 207.0 388.9427C261.09225 388.9427 304.9427 345.09225 304.9427 291.0" fill-rule="nonzero"/><path fill="#000000" d="M200.28125 185.26044L201.09375 185.26044Q201.875 185.24481 202.3125 184.85419Q202.75 184.46356 202.75 183.79169Q202.75 182.29169 201.25 182.29169Q200.54688 182.29169 200.125 182.69794Q199.71875 183.10419 199.71875 183.76044L198.625 183.76044Q198.625 182.74481 199.35938 182.07294Q200.10938 181.40106 201.25 181.40106Q202.45312 181.40106 203.14062 182.04169Q203.82812 182.68231 203.82812 183.82294Q203.82812 184.38544 203.46875 184.90106Q203.10938 185.41669 202.48438 185.68231Q203.1875 185.90106 203.5625 186.41669Q203.95312 186.93231 203.95312 187.68231Q203.95312 188.82294 203.20312 189.51044Q202.45312 190.18231 201.25 190.18231Q200.0625 190.18231 199.29688 189.52606Q198.54688 188.86981 198.54688 187.80731L199.64062 187.80731Q199.64062 188.47919 200.07812 188.88544Q200.51562 189.29169 201.26562 189.29169Q202.04688 189.29169 202.45312 188.88544Q202.875 188.46356 202.875 187.69794Q202.875 186.96356 202.42188 186.57294Q201.96875 186.16669 201.09375 186.15106L200.28125 186.15106L200.28125 185.26044Z" fill-rule="nonzero"/><path stroke="#cccccc" stroke-width="1.0" stroke-linecap="butt" d="M337.59024 291.0C337.59024 218.877 279.123 160.40976 207.0 160.40976C134.877 160.40976 76.40975 218.877 76.40975 291.0C76.40975 363.123 134.877 421.59024 207.0 421.59024C279.123 421.59024 337.59024 363.123 337.59024 291.0" fill-rule="nonzero"/><path fill="#000000" d="M203.28125 154.55038L204.46875 154.55038L204.46875 155.42538L203.28125 155.42538L203.28125 157.40976L202.20312 157.40976L202.20312 155.42538L198.3125 155.42538L198.3125 154.78476L202.125 148.87851L203.28125 148.87851L203.28125 154.55038ZM199.54688 154.55038L202.20312 154.55038L202.20312 150.36288L202.0625 150.59726L199.54688 154.55038Z" fill-rule="nonzero"/><path stroke="#cccccc" stroke-width="1.0" stroke-linecap="butt" d="M370.2378 291.0C370.2378 200.84625 297.15375 127.76219 207.0 127.76219C116.84625 127.76219 43.76219 200.84625 43.76219 291.0C43.76219 381.15375 116.84625 454.2378 207.0 454.2378C297.15375 454.2378 370.2378 381.15375 370.2378 291.0" fill-rule="nonzero"/><path fill="#000000" d="M199.20312 120.48094L199.64062 116.23094L204.01562 116.23094L204.01562 117.23094L200.5625 117.23094L200.29688 119.55907Q200.9375 119.18407 201.73438 119.18407Q202.89062 119.18407 203.57812 119.96532Q204.26562 120.73094 204.26562 122.04344Q204.26562 123.35594 203.54688 124.12157Q202.84375 124.88719 201.5625 124.88719Q200.4375 124.88719 199.71875 124.26219Q199.0 123.62157 198.90625 122.51219L199.92188 122.51219Q200.03125 123.24657 200.45312 123.62157Q200.875 123.99657 201.5625 123.99657Q202.3125 123.99657 202.75 123.48094Q203.1875 122.96532 203.1875 122.05907Q203.1875 121.19969 202.71875 120.68407Q202.25 120.16844 201.46875 120.16844Q200.76562 120.16844 200.35938 120.46532L200.07812 120.69969L199.20312 120.48094Z" fill-rule="nonzero"/><path stroke="#cccccc" stroke-width="1.0" stroke-linecap="butt" d="M207.0 291.0L207.0 128.0" fill-rule="nonzero"/><path fill="#000000" d="M189.60938 106.15625L189.60938 109.5L188.48438 109.5L188.48438 100.96875L191.64062 100.96875Q193.03125 100.96875 193.82812 101.6875Q194.625 102.390625 194.625 103.578125Q194.625 104.8125 193.84375 105.484375Q193.07812 106.15625 191.625 106.15625L189.60938 106.15625ZM189.60938 105.234375L191.64062 105.234375Q192.54688 105.234375 193.01562 104.8125Q193.5 104.390625 193.5 103.59375Q193.5 102.828125 193.01562 102.375Q192.54688 101.90625 191.70312 101.890625L189.60938 101.890625L189.60938 105.234375ZM198.39062 107.90625L199.875 103.15625L201.03125 103.15625L198.48438 110.484375Q197.89062 112.0625 196.60938 112.0625L196.39062 112.046875L196.0 111.96875L196.0 111.09375L196.28125 111.109375Q196.84375 111.109375 197.14062 110.890625Q197.45312 110.671875 197.65625 110.078125L197.89062 109.421875L195.625 103.15625L196.8125 103.15625L198.39062 107.90625ZM203.79688 101.625L203.79688 103.15625L204.96875 103.15625L204.96875 104.0L203.79688 104.0L203.79688 107.921875Q203.79688 108.3125 203.95312 108.5Q204.10938 108.6875 204.48438 108.6875Q204.67188 108.6875 205.0 108.625L205.0 109.5Q204.57812 109.625 204.17188 109.625Q203.45312 109.625 203.07812 109.1875Q202.70312 108.734375 202.70312 107.921875L202.70312 104.0L201.54688 104.0L201.54688 103.15625L202.70312 103.15625L202.70312 101.625L203.79688 101.625ZM207.40625 103.921875Q208.125 103.046875 209.28125 103.046875Q211.29688 103.046875 211.3125 105.3125L211.3125 109.5L210.21875 109.5L210.21875 105.296875Q210.21875 104.625 209.90625 104.296875Q209.60938 103.96875 208.95312 103.96875Q208.42188 103.96875 208.01562 104.25Q207.625 104.53125 207.40625 104.984375L207.40625 109.5L206.32812 109.5L206.32812 100.5L207.40625 100.5L207.40625 103.921875ZM213.03125 106.265625Q213.03125 105.34375 213.39062 104.59375Q213.76562 103.84375 214.42188 103.453125Q215.07812 103.046875 215.90625 103.046875Q217.20312 103.046875 218.0 103.9375Q218.8125 104.828125 218.8125 106.328125L218.8125 106.40625Q218.8125 107.328125 218.45312 108.0625Q218.09375 108.796875 217.4375 109.21875Q216.78125 109.625 215.92188 109.625Q214.64062 109.625 213.82812 108.734375Q213.03125 107.828125 213.03125 106.34375L213.03125 106.265625ZM214.125 106.40625Q214.125 107.453125 214.60938 108.09375Q215.10938 108.734375 215.92188 108.734375Q216.75 108.734375 217.23438 108.09375Q217.71875 107.4375 217.71875 106.265625Q217.71875 105.234375 217.21875 104.59375Q216.73438 103.9375 215.90625 103.9375Q215.10938 103.9375 214.60938 104.578125Q214.125 105.203125 214.125 106.40625ZM221.34375 103.15625L221.375 103.953125Q222.10938 103.046875 223.28125 103.046875Q225.29688 103.046875 225.3125 105.3125L225.3125 109.5L224.21875 109.5L224.21875 105.296875Q224.21875 104.625 223.90625 104.296875Q223.60938 103.96875 222.95312 103.96875Q222.42188 103.96875 222.01562 104.25Q221.625 104.53125 221.40625 104.984375L221.40625 109.5L220.32812 109.5L220.32812 103.15625L221.34375 103.15625Z" fill-rule="nonzero"/><path stroke="#cccccc" stroke-width="1.0" stroke-linecap="butt" d="M207.0 291.0L322.0 176.0" fill-rule="nonzero"/><path fill="#000000" d="M329.0625 155.96875L330.20312 155.96875L330.20312 162.01562Q330.20312 163.23438 329.45312 163.9375Q328.71875 164.625 327.5 164.625Q326.23438 164.625 325.51562 163.96875Q324.8125 163.3125 324.8125 162.14062L325.9375 162.14062Q325.9375 162.875 326.32812 163.29688Q326.73438 163.70312 327.5 163.70312Q328.20312 163.70312 328.625 163.26562Q329.0625 162.8125 329.0625 162.03125L329.0625 155.96875ZM336.23438 164.5Q336.14062 164.3125 336.07812 163.82812Q335.32812 164.625 334.28125 164.625Q333.34375 164.625 332.73438 164.09375Q332.14062 163.5625 332.14062 162.73438Q332.14062 161.75 332.89062 161.20312Q333.64062 160.65625 335.01562 160.65625L336.0625 160.65625L336.0625 160.15625Q336.0625 159.59375 335.71875 159.26562Q335.39062 158.92188 334.71875 158.92188Q334.14062 158.92188 333.75 159.21875Q333.35938 159.5 333.35938 159.92188L332.26562 159.92188Q332.26562 159.4375 332.59375 159.0Q332.9375 158.5625 333.51562 158.3125Q334.09375 158.04688 334.78125 158.04688Q335.89062 158.04688 336.5 158.59375Q337.125 159.14062 337.15625 160.09375L337.15625 163.01562Q337.15625 163.89062 337.375 164.40625L337.375 164.5L336.23438 164.5ZM334.4375 163.67188Q334.95312 163.67188 335.40625 163.40625Q335.85938 163.14062 336.0625 162.71875L336.0625 161.42188L335.21875 161.42188Q333.21875 161.42188 333.21875 162.59375Q333.21875 163.09375 333.5625 163.39062Q333.90625 163.67188 334.4375 163.67188ZM341.40625 163.03125L342.98438 158.15625L344.09375 158.15625L341.8125 164.5L340.98438 164.5L338.6875 158.15625L339.79688 158.15625L341.40625 163.03125ZM349.23438 164.5Q349.14062 164.3125 349.07812 163.82812Q348.32812 164.625 347.28125 164.625Q346.34375 164.625 345.73438 164.09375Q345.14062 163.5625 345.14062 162.73438Q345.14062 161.75 345.89062 161.20312Q346.64062 160.65625 348.01562 160.65625L349.0625 160.65625L349.0625 160.15625Q349.0625 159.59375 348.71875 159.26562Q348.39062 158.92188 347.71875 158.92188Q347.14062 158.92188 346.75 159.21875Q346.35938 159.5 346.35938 159.92188L345.26562 159.92188Q345.26562 159.4375 345.59375 159.0Q345.9375 158.5625 346.51562 158.3125Q347.09375 158.04688 347.78125 158.04688Q348.89062 158.04688 349.5 158.59375Q350.125 159.14062 350.15625 160.09375L350.15625 163.01562Q350.15625 163.89062 350.375 164.40625L350.375 164.5L349.23438 164.5ZM347.4375 163.67188Q347.95312 163.67188 348.40625 163.40625Q348.85938 163.14062 349.0625 162.71875L349.0625 161.42188L348.21875 161.42188Q346.21875 161.42188 346.21875 162.59375Q346.21875 163.09375 346.5625 163.39062Q346.90625 163.67188 347.4375 163.67188Z" fill-rule="nonzero"/><path stroke="#cccccc" stroke-width="1.0" stroke-linecap="butt" d="M207.0 291.0L370.0 291.0" fill-rule="nonzero"/><path fill="#000000" d="M383.625 292.04688L381.60938 292.04688L381.60938 295.5L380.48438 295.5L380.48438 286.96875L383.3125 286.96875Q384.75 286.96875 385.51562 287.625Q386.29688 288.28125 386.29688 289.53125Q386.29688 290.32812 385.85938 290.92188Q385.4375 291.51562 384.67188 291.8125L386.67188 295.42188L386.67188 295.5L385.46875 295.5L383.625 292.04688ZM381.60938 291.125L383.34375 291.125Q384.1875 291.125 384.67188 290.70312Q385.17188 290.26562 385.17188 289.53125Q385.17188 288.75 384.70312 288.32812Q384.23438 287.90625 383.34375 287.89062L381.60938 287.89062L381.60938 291.125ZM391.23438 294.875Q390.60938 295.625 389.375 295.625Q388.35938 295.625 387.82812 295.03125Q387.29688 294.4375 387.29688 293.28125L387.29688 289.15625L388.375 289.15625L388.375 293.25Q388.375 294.70312 389.54688 294.70312Q390.79688 294.70312 391.20312 293.76562L391.20312 289.15625L392.29688 289.15625L392.29688 295.5L391.26562 295.5L391.23438 294.875ZM399.6875 292.40625Q399.6875 293.85938 399.01562 294.75Q398.35938 295.625 397.23438 295.625Q396.03125 295.625 395.375 294.76562L395.3125 295.5L394.32812 295.5L394.32812 286.5L395.40625 286.5L395.40625 289.85938Q396.0625 289.04688 397.21875 289.04688Q398.375 289.04688 399.03125 289.92188Q399.6875 290.78125 399.6875 292.3125L399.6875 292.40625ZM398.60938 292.28125Q398.60938 291.17188 398.17188 290.57812Q397.75 289.96875 396.95312 289.96875Q395.875 289.96875 395.40625 290.95312L395.40625 293.70312Q395.90625 294.70312 396.95312 294.70312Q397.73438 294.70312 398.17188 294.09375Q398.60938 293.48438 398.60938 292.28125ZM403.39062 293.90625L404.875 289.15625L406.03125 289.15625L403.48438 296.48438Q402.89062 298.0625 401.60938 298.0625L401.39062 298.04688L401.0 297.96875L401.0 297.09375L401.28125 297.10938Q401.84375 297.10938 402.14062 296.89062Q402.45312 296.67188 402.65625 296.07812L402.89062 295.42188L400.625 289.15625L401.8125 289.15625L403.39062 293.90625Z" fill-rule="nonzero"/><path stroke="#cccccc" stroke-width="1.0" stroke-linecap="butt" d="M207.0 291.0L322.0 406.0" fill-rule="nonzero"/><path fill="#000000" d="M313.5625 417.96875L314.70312 417.96875L314.70312 424.01562Q314.70312 425.23438 313.95312 425.9375Q313.21875 426.625 312.0 426.625Q310.73438 426.625 310.01562 425.96875Q309.3125 425.3125 309.3125 424.14062L310.4375 424.14062Q310.4375 424.875 310.82812 425.29688Q311.23438 425.70312 312.0 425.70312Q312.70312 425.70312 313.125 425.26562Q313.5625 424.8125 313.5625 424.03125L313.5625 417.96875ZM320.73438 426.5Q320.64062 426.3125 320.57812 425.82812Q319.82812 426.625 318.78125 426.625Q317.84375 426.625 317.23438 426.09375Q316.64062 425.5625 316.64062 424.73438Q316.64062 423.75 317.39062 423.20312Q318.14062 422.65625 319.51562 422.65625L320.5625 422.65625L320.5625 422.15625Q320.5625 421.59375 320.21875 421.26562Q319.89062 420.92188 319.21875 420.92188Q318.64062 420.92188 318.25 421.21875Q317.85938 421.5 317.85938 421.92188L316.76562 421.92188Q316.76562 421.4375 317.09375 421.0Q317.4375 420.5625 318.01562 420.3125Q318.59375 420.04688 319.28125 420.04688Q320.39062 420.04688 321.0 420.59375Q321.625 421.14062 321.65625 422.09375L321.65625 425.01562Q321.65625 425.89062 321.875 426.40625L321.875 426.5L320.73438 426.5ZM318.9375 425.67188Q319.45312 425.67188 319.90625 425.40625Q320.35938 425.14062 320.5625 424.71875L320.5625 423.42188L319.71875 423.42188Q317.71875 423.42188 317.71875 424.59375Q317.71875 425.09375 318.0625 425.39062Q318.40625 425.67188 318.9375 425.67188ZM325.90625 425.03125L327.48438 420.15625L328.59375 420.15625L326.3125 426.5L325.48438 426.5L323.1875 420.15625L324.29688 420.15625L325.90625 425.03125ZM333.73438 426.5Q333.64062 426.3125 333.57812 425.82812Q332.82812 426.625 331.78125 426.625Q330.84375 426.625 330.23438 426.09375Q329.64062 425.5625 329.64062 424.73438Q329.64062 423.75 330.39062 423.20312Q331.14062 422.65625 332.51562 422.65625L333.5625 422.65625L333.5625 422.15625Q333.5625 421.59375 333.21875 421.26562Q332.89062 420.92188 332.21875 420.92188Q331.64062 420.92188 331.25 421.21875Q330.85938 421.5 330.85938 421.92188L329.76562 421.92188Q329.76562 421.4375 330.09375 421.0Q330.4375 420.5625 331.01562 420.3125Q331.59375 420.04688 332.28125 420.04688Q333.39062 420.04688 334.0 420.59375Q334.625 421.14062 334.65625 422.09375L334.65625 425.01562Q334.65625 425.89062 334.875 426.40625L334.875 426.5L333.73438 426.5ZM331.9375 425.67188Q332.45312 425.67188 332.90625 425.40625Q333.35938 425.14062 333.5625 424.71875L333.5625 423.42188L332.71875 423.42188Q330.71875 423.42188 330.71875 424.59375Q330.71875 425.09375 331.0625 425.39062Q331.40625 425.67188 331.9375 425.67188ZM339.5 422.70312Q338.0625 422.28125 337.39062 421.67188Q336.73438 421.0625 336.73438 420.17188Q336.73438 419.17188 337.53125 418.51562Q338.34375 417.84375 339.64062 417.84375Q340.51562 417.84375 341.20312 418.1875Q341.89062 418.53125 342.26562 419.125Q342.65625 419.71875 342.65625 420.4375L341.51562 420.4375Q341.51562 419.65625 341.01562 419.21875Q340.53125 418.78125 339.64062 418.78125Q338.8125 418.78125 338.34375 419.15625Q337.875 419.51562 337.875 420.15625Q337.875 420.6875 338.3125 421.04688Q338.76562 421.40625 339.82812 421.70312Q340.89062 422.0 341.48438 422.35938Q342.09375 422.71875 342.375 423.20312Q342.67188 423.6875 342.67188 424.32812Q342.67188 425.375 341.85938 426.0Q341.04688 426.625 339.70312 426.625Q338.8125 426.625 338.04688 426.28125Q337.29688 425.9375 336.875 425.35938Q336.46875 424.76562 336.46875 424.03125L337.59375 424.03125Q337.59375 424.79688 338.17188 425.25Q338.75 425.70312 339.70312 425.70312Q340.59375 425.70312 341.0625 425.34375Q341.53125 424.96875 341.53125 424.34375Q341.53125 423.71875 341.09375 423.375Q340.65625 423.03125 339.5 422.70312ZM346.35938 425.73438Q346.9375 425.73438 347.375 425.39062Q347.8125 425.03125 347.85938 424.5L348.89062 424.5Q348.85938 425.04688 348.5 425.54688Q348.15625 426.03125 347.57812 426.32812Q347.01562 426.625 346.35938 426.625Q345.0625 426.625 344.29688 425.76562Q343.54688 424.89062 343.54688 423.39062L343.54688 423.20312Q343.54688 422.28125 343.875 421.5625Q344.21875 420.84375 344.84375 420.45312Q345.48438 420.04688 346.35938 420.04688Q347.42188 420.04688 348.125 420.6875Q348.84375 421.3125 348.89062 422.34375L347.85938 422.34375Q347.8125 421.71875 347.39062 421.32812Q346.96875 420.9375 346.35938 420.9375Q345.53125 420.9375 345.07812 421.53125Q344.625 422.125 344.625 423.25L344.625 423.45312Q344.625 424.54688 345.07812 425.14062Q345.53125 425.73438 346.35938 425.73438ZM352.89062 421.125Q352.64062 421.09375 352.35938 421.09375Q351.28125 421.09375 350.90625 422.0L350.90625 426.5L349.82812 426.5L349.82812 420.15625L350.875 420.15625L350.89062 420.89062Q351.42188 420.04688 352.40625 420.04688Q352.71875 420.04688 352.89062 420.125L352.89062 421.125ZM355.0 426.5L353.92188 426.5L353.92188 420.15625L355.0 420.15625L355.0 426.5ZM353.82812 418.48438Q353.82812 418.21875 353.98438 418.03125Q354.15625 417.84375 354.46875 417.84375Q354.78125 417.84375 354.9375 418.03125Q355.10938 418.21875 355.10938 418.48438Q355.10938 418.73438 354.9375 418.92188Q354.78125 419.09375 354.46875 419.09375Q354.15625 419.09375 353.98438 418.92188Q353.82812 418.73438 353.82812 418.48438ZM362.17188 423.40625Q362.17188 424.84375 361.51562 425.73438Q360.85938 426.625 359.71875 426.625Q358.5625 426.625 357.90625 425.89062L357.90625 428.9375L356.82812 428.9375L356.82812 420.15625L357.8125 420.15625L357.85938 420.85938Q358.53125 420.04688 359.70312 420.04688Q360.84375 420.04688 361.5 420.90625Q362.17188 421.76562 362.17188 423.29688L362.17188 423.40625ZM361.09375 423.28125Q361.09375 422.20312 360.625 421.59375Q360.17188 420.96875 359.375 420.96875Q358.39062 420.96875 357.90625 421.82812L357.90625 424.85938Q358.39062 425.73438 359.39062 425.73438Q360.17188 425.73438 360.625 425.125Q361.09375 424.5 361.09375 423.28125ZM365.29688 418.625L365.29688 420.15625L366.46875 420.15625L366.46875 421.0L365.29688 421.0L365.29688 424.92188Q365.29688 425.3125 365.45312 425.5Q365.60938 425.6875 365.98438 425.6875Q366.17188 425.6875 366.5 425.625L366.5 426.5Q366.07812 426.625 365.67188 426.625Q364.95312 426.625 364.57812 426.1875Q364.20312 425.73438 364.20312 424.92188L364.20312 421.0L363.04688 421.0L363.04688 420.15625L364.20312 420.15625L364.20312 418.625L365.29688 418.625Z" fill-rule="nonzero"/><path stroke="#cccccc" stroke-width="1.0" stroke-linecap="butt" d="M207.0 291.0L207.0 454.0" fill-rule="nonzero"/><path fill="#000000" d="M210.26562 478.79688Q210.10938 480.14062 209.26562 480.89062Q208.42188 481.625 207.03125 481.625Q205.51562 481.625 204.60938 480.54688Q203.70312 479.45312 203.70312 477.625L203.70312 476.8125Q203.70312 475.625 204.125 474.71875Q204.54688 473.8125 205.32812 473.32812Q206.10938 472.84375 207.125 472.84375Q208.48438 472.84375 209.29688 473.60938Q210.125 474.375 210.26562 475.70312L209.14062 475.70312Q208.98438 474.6875 208.5 474.23438Q208.01562 473.78125 207.125 473.78125Q206.04688 473.78125 205.4375 474.57812Q204.82812 475.375 204.82812 476.84375L204.82812 477.67188Q204.82812 479.0625 205.40625 479.89062Q205.98438 480.70312 207.03125 480.70312Q207.96875 480.70312 208.46875 480.28125Q208.96875 479.84375 209.14062 478.79688L210.26562 478.79688Z" fill-rule="nonzero"/><path stroke="#cccccc" stroke-width="1.0" stroke-linecap="butt" d="M207.0 291.0L92.0 406.0" fill-rule="nonzero"/><path fill="#000000" d="M67.546875 426.5L66.421875 426.5L66.421875 422.5625L62.109375 422.5625L62.109375 426.5L60.984375 426.5L60.984375 417.96875L62.109375 417.96875L62.109375 421.64062L66.421875 421.64062L66.421875 417.96875L67.546875 417.96875L67.546875 426.5ZM75.890625 418.89062L73.140625 418.89062L73.140625 426.5L72.03125 426.5L72.03125 418.89062L69.28125 418.89062L69.28125 417.96875L75.890625 417.96875L75.890625 418.89062ZM78.4375 417.96875L81.234375 424.92188L84.015625 417.96875L85.484375 417.96875L85.484375 426.5L84.359375 426.5L84.359375 423.17188L84.46875 419.59375L81.65625 426.5L80.796875 426.5L78.0 419.60938L78.109375 423.17188L78.109375 426.5L76.984375 426.5L76.984375 417.96875L78.4375 417.96875ZM88.125 425.57812L92.171875 425.57812L92.171875 426.5L86.984375 426.5L86.984375 417.96875L88.125 417.96875L88.125 425.57812Z" fill-rule="nonzero"/><path stroke="#cccccc" stroke-width="1.0" stroke-linecap="butt" d="M207.0 291.0L44.0 291.0" fill-rule="nonzero"/><path fill="#000000" d="M17.265625 292.79688Q17.109375 294.14062 16.265625 294.89062Q15.421875 295.625 14.03125 295.625Q12.515625 295.625 11.609375 294.54688Q10.703125 293.45312 10.703125 291.625L10.703125 290.8125Q10.703125 289.625 11.125 288.71875Q11.546875 287.8125 12.328125 287.32812Q13.109375 286.84375 14.125 286.84375Q15.484375 286.84375 16.296875 287.60938Q17.125 288.375 17.265625 289.70312L16.140625 289.70312Q15.984375 288.6875 15.5 288.23438Q15.015625 287.78125 14.125 287.78125Q13.046875 287.78125 12.4375 288.57812Q11.828125 289.375 11.828125 290.84375L11.828125 291.67188Q11.828125 293.0625 12.40625 293.89062Q12.984375 294.70312 14.03125 294.70312Q14.96875 294.70312 15.46875 294.28125Q15.96875 293.84375 16.140625 292.79688L17.265625 292.79688ZM21.5 291.70312Q20.0625 291.28125 19.390625 290.67188Q18.734375 290.0625 18.734375 289.17188Q18.734375 288.17188 19.53125 287.51562Q20.34375 286.84375 21.640625 286.84375Q22.515625 286.84375 23.203125 287.1875Q23.890625 287.53125 24.265625 288.125Q24.65625 288.71875 24.65625 289.4375L23.515625 289.4375Q23.515625 288.65625 23.015625 288.21875Q22.53125 287.78125 21.640625 287.78125Q20.8125 287.78125 20.34375 288.15625Q19.875 288.51562 19.875 289.15625Q19.875 289.6875 20.3125 290.04688Q20.765625 290.40625 21.828125 290.70312Q22.890625 291.0 23.484375 291.35938Q24.09375 291.71875 24.375 292.20312Q24.671875 292.6875 24.671875 293.32812Q24.671875 294.375 23.859375 295.0Q23.046875 295.625 21.703125 295.625Q20.8125 295.625 20.046875 295.28125Q19.296875 294.9375 18.875 294.35938Q18.46875 293.76562 18.46875 293.03125L19.59375 293.03125Q19.59375 293.79688 20.171875 294.25Q20.75 294.70312 21.703125 294.70312Q22.59375 294.70312 23.0625 294.34375Q23.53125 293.96875 23.53125 293.34375Q23.53125 292.71875 23.09375 292.375Q22.65625 292.03125 21.5 291.70312ZM28.5 291.70312Q27.0625 291.28125 26.390625 290.67188Q25.734375 290.0625 25.734375 289.17188Q25.734375 288.17188 26.53125 287.51562Q27.34375 286.84375 28.640625 286.84375Q29.515625 286.84375 30.203125 287.1875Q30.890625 287.53125 31.265625 288.125Q31.65625 288.71875 31.65625 289.4375L30.515625 289.4375Q30.515625 288.65625 30.015625 288.21875Q29.53125 287.78125 28.640625 287.78125Q27.8125 287.78125 27.34375 288.15625Q26.875 288.51562 26.875 289.15625Q26.875 289.6875 27.3125 290.04688Q27.765625 290.40625 28.828125 290.70312Q29.890625 291.0 30.484375 291.35938Q31.09375 291.71875 31.375 292.20312Q31.671875 292.6875 31.671875 293.32812Q31.671875 294.375 30.859375 295.0Q30.046875 295.625 28.703125 295.625Q27.8125 295.625 27.046875 295.28125Q26.296875 294.9375 25.875 294.35938Q25.46875 293.76562 25.46875 293.03125L26.59375 293.03125Q26.59375 293.79688 27.171875 294.25Q27.75 294.70312 28.703125 294.70312Q29.59375 294.70312 30.0625 294.34375Q30.53125 293.96875 30.53125 293.34375Q30.53125 292.71875 30.09375 292.375Q29.65625 292.03125 28.5 291.70312Z" fill-rule="nonzero"/><path stroke="#cccccc" stroke-width="1.0" stroke-linecap="butt" d="M207.0 291.0L92.0 176.0" fill-rule="nonzero"/><path fill="#000000" d="M69.0 160.70312Q67.5625 160.28125 66.890625 159.67188Q66.234375 159.0625 66.234375 158.17188Q66.234375 157.17188 67.03125 156.51562Q67.84375 155.84375 69.140625 155.84375Q70.015625 155.84375 70.703125 156.1875Q71.390625 156.53125 71.765625 157.125Q72.15625 157.71875 72.15625 158.4375L71.015625 158.4375Q71.015625 157.65625 70.515625 157.21875Q70.03125 156.78125 69.140625 156.78125Q68.3125 156.78125 67.84375 157.15625Q67.375 157.51562 67.375 158.15625Q67.375 158.6875 67.8125 159.04688Q68.265625 159.40625 69.328125 159.70312Q70.390625 160.0 70.984375 160.35938Q71.59375 160.71875 71.875 161.20312Q72.171875 161.6875 72.171875 162.32812Q72.171875 163.375 71.359375 164.0Q70.546875 164.625 69.203125 164.625Q68.3125 164.625 67.546875 164.28125Q66.796875 163.9375 66.375 163.35938Q65.96875 162.76562 65.96875 162.03125L67.09375 162.03125Q67.09375 162.79688 67.671875 163.25Q68.25 163.70312 69.203125 163.70312Q70.09375 163.70312 70.5625 163.34375Q71.03125 162.96875 71.03125 162.34375Q71.03125 161.71875 70.59375 161.375Q70.15625 161.03125 69.0 160.70312ZM80.0 160.51562Q80.0 161.75 79.609375 162.64062Q79.21875 163.53125 78.515625 164.03125L80.03125 165.23438L79.265625 165.9375L77.46875 164.51562Q77.046875 164.625 76.578125 164.625Q75.578125 164.625 74.796875 164.125Q74.015625 163.625 73.578125 162.71875Q73.15625 161.79688 73.140625 160.57812L73.140625 159.96875Q73.140625 158.73438 73.5625 157.79688Q74.0 156.85938 74.78125 156.35938Q75.5625 155.84375 76.5625 155.84375Q77.59375 155.84375 78.375 156.34375Q79.15625 156.84375 79.578125 157.78125Q80.0 158.71875 80.0 159.96875L80.0 160.51562ZM78.875 159.95312Q78.875 158.45312 78.28125 157.64062Q77.6875 156.8125 76.5625 156.8125Q75.5 156.8125 74.890625 157.625Q74.28125 158.4375 74.265625 159.875L74.265625 160.51562Q74.265625 161.96875 74.875 162.8125Q75.484375 163.65625 76.578125 163.65625Q77.671875 163.65625 78.265625 162.875Q78.859375 162.07812 78.875 160.59375L78.875 159.95312ZM82.625 163.57812L86.671875 163.57812L86.671875 164.5L81.484375 164.5L81.484375 155.96875L82.625 155.96875L82.625 163.57812Z" fill-rule="nonzero"/><path stroke="#cccccc" stroke-width="1.0" stroke-linecap="butt" d="M207.0 291.0L207.0 128.0" fill-rule="nonzero"/><path stroke="#14b8a6" stroke-width="5.0" stroke-linecap="butt" stroke-opacity="0.7019608" d="M207.0 128.0C249.0 133.0 289.0 150.0 322.0 176.0C348.0 209.0 365.0 249.0 370.0 291.0C354.0 330.0 330.0 362.0 299.0 383.0C272.0 404.0 241.0 417.0 207.0 422.0C176.0 407.0 153.0 385.0 138.0 360.0C122.0 340.0 112.0 316.0 109.0 291.0C112.0 266.0 122.0 242.0 138.0 222.0C147.0 187.0 170.0 154.0 207.0 128.0Z" fill-rule="nonzero"/><path stroke="#14b8a6" stroke-width="4.0" stroke-linecap="butt" stroke-opacity="0.7019608" d="M150.39424 38.583588L162.39424 38.583588" fill-rule="nonzero"/><path fill="#434343" d="M173.56612 39.567963L173.56612 44.583588L171.87862 44.583588L171.87862 31.786713L176.59737 31.786713Q178.70674 31.786713 179.89424 32.864838Q181.08174 33.927338 181.08174 35.692963Q181.08174 37.567963 179.90987 38.567963Q178.75362 39.567963 176.58174 39.567963L173.56612 39.567963ZM173.56612 38.192963L176.59737 38.192963Q177.95674 38.192963 178.67549 37.552338Q179.39424 36.911713 179.39424 35.708588Q179.39424 34.567963 178.67549 33.896088Q177.95674 33.208588 176.69112 33.177338L173.56612 33.177338L173.56612 38.192963ZM187.22237 36.536713Q186.84737 36.474213 186.42549 36.474213Q184.81612 36.474213 184.25362 37.833588L184.25362 44.583588L182.62862 44.583588L182.62862 35.067963L184.20674 35.067963L184.23799 36.177338Q185.03487 34.896088 186.50362 34.896088Q186.97237 34.896088 187.22237 35.021088L187.22237 36.536713ZM188.19112 39.739838Q188.19112 38.349213 188.73799 37.239838Q189.30049 36.114838 190.26924 35.505463Q191.25362 34.896088 192.50362 34.896088Q194.45674 34.896088 195.64424 36.239838Q196.84737 37.583588 196.84737 39.817963L196.84737 39.927338Q196.84737 41.317963 196.31612 42.427338Q195.78487 43.521088 194.80049 44.146088Q193.81612 44.755463 192.53487 44.755463Q190.59737 44.755463 189.39424 43.411713Q188.19112 42.067963 188.19112 39.849213L188.19112 39.739838ZM189.83174 39.927338Q189.83174 41.521088 190.56612 42.474213Q191.30049 43.427338 192.53487 43.427338Q193.76924 43.427338 194.48799 42.458588Q195.22237 41.489838 195.22237 39.739838Q195.22237 38.177338 194.47237 37.208588Q193.73799 36.239838 192.50362 36.239838Q191.30049 36.239838 190.56612 37.192963Q189.83174 38.146088 189.83174 39.927338ZM199.42549 44.583588L199.42549 36.333588L197.92549 36.333588L197.92549 35.067963L199.42549 35.067963L199.42549 34.099213Q199.42549 32.567963 200.23799 31.739838Q201.06612 30.896088 202.55049 30.896088Q203.11299 30.896088 203.67549 31.052338L203.58174 32.364838Q203.17549 32.286713 202.70674 32.286713Q201.90987 32.286713 201.47237 32.755463Q201.05049 33.208588 201.05049 34.067963L201.05049 35.067963L203.08174 35.067963L203.08174 36.333588L201.05049 36.333588L201.05049 44.583588L199.42549 44.583588ZM206.39424 44.583588L204.76924 44.583588L204.76924 35.067963L206.39424 35.067963L206.39424 44.583588ZM204.62862 32.552338Q204.62862 32.161713 204.86299 31.896088Q205.11299 31.614838 205.58174 31.614838Q206.06612 31.614838 206.31612 31.896088Q206.56612 32.161713 206.56612 32.552338Q206.56612 32.942963 206.31612 33.208588Q206.06612 33.474213 205.58174 33.474213Q205.11299 33.474213 204.86299 33.208588Q204.62862 32.942963 204.62862 32.552338ZM212.44112 43.427338Q213.31612 43.427338 213.95674 42.911713Q214.61299 42.380463 214.67549 41.583588L216.22237 41.583588Q216.17549 42.396088 215.65987 43.146088Q215.14424 43.880463 214.26924 44.317963Q213.40987 44.755463 212.44112 44.755463Q210.50362 44.755463 209.34737 43.458588Q208.20674 42.161713 208.20674 39.911713L208.20674 39.646088Q208.20674 38.255463 208.70674 37.177338Q209.22237 36.099213 210.17549 35.505463Q211.12862 34.896088 212.42549 34.896088Q214.03487 34.896088 215.08174 35.864838Q216.14424 36.817963 216.22237 38.349213L214.67549 38.349213Q214.61299 37.427338 213.97237 36.833588Q213.34737 36.239838 212.42549 36.239838Q211.19112 36.239838 210.50362 37.130463Q209.83174 38.021088 209.83174 39.708588L209.83174 40.005463Q209.83174 41.661713 210.50362 42.552338Q211.17549 43.427338 212.44112 43.427338ZM219.39424 44.583588L217.76924 44.583588L217.76924 35.067963L219.39424 35.067963L219.39424 44.583588ZM217.62862 32.552338Q217.62862 32.161713 217.86299 31.896088Q218.11299 31.614838 218.58174 31.614838Q219.06612 31.614838 219.31612 31.896088Q219.56612 32.161713 219.56612 32.552338Q219.56612 32.942963 219.31612 33.208588Q219.06612 33.474213 218.58174 33.474213Q218.11299 33.474213 217.86299 33.208588Q217.62862 32.942963 217.62862 32.552338ZM225.56612 44.755463Q223.64424 44.755463 222.42549 43.489838Q221.20674 42.224213 221.20674 40.099213L221.20674 39.786713Q221.20674 38.380463 221.75362 37.271088Q222.30049 36.161713 223.26924 35.536713Q224.23799 34.896088 225.36299 34.896088Q227.22237 34.896088 228.25362 36.114838Q229.28487 37.333588 229.28487 39.614838L229.28487 40.286713L222.83174 40.286713Q222.87862 41.692963 223.65987 42.567963Q224.44112 43.427338 225.65987 43.427338Q226.51924 43.427338 227.11299 43.083588Q227.72237 42.724213 228.15987 42.146088L229.15987 42.927338Q227.95674 44.755463 225.56612 44.755463ZM225.36299 36.239838Q224.37862 36.239838 223.70674 36.958588Q223.05049 37.661713 222.89424 38.958588L227.65987 38.958588L227.65987 38.833588Q227.58174 37.599213 226.98799 36.927338Q226.39424 36.239838 225.36299 36.239838ZM233.15987 35.067963L233.22237 36.271088Q234.30049 34.896088 236.06612 34.896088Q239.08174 34.896088 239.09737 38.302338L239.09737 44.583588L237.47237 44.583588L237.47237 38.286713Q237.47237 37.255463 237.00362 36.771088Q236.55049 36.271088 235.56612 36.271088Q234.78487 36.271088 234.17549 36.692963Q233.58174 37.114838 233.25362 37.802338L233.25362 44.583588L231.62862 44.583588L231.62862 35.067963L233.15987 35.067963ZM245.44112 43.427338Q246.31612 43.427338 246.95674 42.911713Q247.61299 42.380463 247.67549 41.583588L249.22237 41.583588Q249.17549 42.396088 248.65987 43.146088Q248.14424 43.880463 247.26924 44.317963Q246.40987 44.755463 245.44112 44.755463Q243.50362 44.755463 242.34737 43.458588Q241.20674 42.161713 241.20674 39.911713L241.20674 39.646088Q241.20674 38.255463 241.70674 37.177338Q242.22237 36.099213 243.17549 35.505463Q244.12862 34.896088 245.42549 34.896088Q247.03487 34.896088 248.08174 35.864838Q249.14424 36.817963 249.22237 38.349213L247.67549 38.349213Q247.61299 37.427338 246.97237 36.833588Q246.34737 36.239838 245.42549 36.239838Q244.19112 36.239838 243.50362 37.130463Q242.83174 38.021088 242.83174 39.708588L242.83174 40.005463Q242.83174 41.661713 243.50362 42.552338Q244.17549 43.427338 245.44112 43.427338ZM253.73799 42.208588L255.95674 35.067963L257.6911 35.067963L253.86299 46.052338Q252.98799 48.427338 251.05049 48.427338L250.73799 48.396088L250.12862 48.286713L250.12862 46.958588L250.56612 47.005463Q251.39424 47.005463 251.84737 46.661713Q252.31612 46.333588 252.61299 45.442963L252.98799 44.474213L249.58174 35.067963L251.36299 35.067963L253.73799 42.208588Z" fill-rule="nonzero"/></svg>