<svg version="1.1" viewBox="0.0 0.0 613.0 516.0" fill="none" stroke="none" stroke-linecap="square" stroke-miterlimit="10" width="613" height="516" xmlns:xlink="http://www.w3.org/1999/xlink" xmlns="http://www.w3.org/2000/svg"><path fill="#ffffff" d="M0 0L613.0 0L613.0 516.0L0 516.0L0 0Z" fill-rule="nonzero"/><path fill="#ffffff" d="M25.8 25.8L587.2 25.8L587.2 490.19998L25.8 490.19998L25.8 25.8Z" fill-rule="nonzero"/><path stroke="#cccccc" stroke-width="1.0" stroke-linecap="butt" d="M307.0 258.0C307.0 258.0 307.0 258.0 307.0 258.0C307.0 258.0 307.0 258.0 307.0 258.0C307.0 258.0 307.0 258.0 307.0 258.0C307.0 258.0 307.0 258.0 307.0 258.0" fill-rule="nonzero"/><path fill="#000000" d="M304.0625 251.35938Q304.0625 253.26562 303.40625 254.20312Q302.76562 255.125 301.375 255.125Q300.01562 255.125 299.35938 254.21875Q298.70312 253.3125 298.67188 251.5L298.67188 250.0625Q298.67188 248.17188 299.3125 247.26562Q299.96875 246.34375 301.35938 246.34375Q302.73438 246.34375 303.39062 247.23438Q304.04688 248.10938 304.0625 249.95312L304.0625 251.35938ZM302.96875 249.875Q302.96875 248.5 302.57812 247.875Q302.20312 247.23438 301.35938 247.23438Q300.53125 247.23438 300.14062 247.875Q299.76562 248.5 299.76562 249.79688L299.76562 251.53125Q299.76562 252.90625 300.15625 253.57812Q300.5625 254.23438 301.375 254.23438Q302.17188 254.23438 302.5625 253.60938Q302.95312 252.98438 302.96875 251.65625L302.96875 249.875Z" fill-rule="nonzero"/><path stroke="#cccccc" stroke-width="1.0" stroke-linecap="butt" d="M334.54 258.0C334.54 242.79008 322.20993 230.46 307.0 230.46C291.79007 230.46 279.46 242.79008 279.46 258.0C279.46 273.20993 291.79007 285.54 307.0 285.54C322.20993 285.54 334.54 273.20993 334.54 258.0" fill-rule="nonzero"/><path fill="#000000" d="M302.26562 227.46L301.1875 227.46L301.1875 220.24126L299.0 221.03813L299.0 220.05376L302.10938 218.88188L302.26562 218.88188L302.26562 227.46Z" fill-rule="nonzero"/><path stroke="#cccccc" stroke-width="1.0" stroke-linecap="butt" d="M362.08 258.0C362.08 227.58015 337.41983 202.92 307.0 202.92C276.58017 202.92 251.92 227.58015 251.92 258.0C251.92 288.41983 276.58017 313.08 307.0 313.08C337.41983 313.08 362.08 288.41983 362.08 258.0" fill-rule="nonzero"/><path fill="#000000" d="M304.29688 199.92L298.70312 199.92L298.70312 199.13875L301.65625 195.8575Q302.3125 195.1075 302.5625 194.65437Q302.8125 194.18562 302.8125 193.68562Q302.8125 193.01375 302.40625 192.59187Q302.01562 192.15437 301.32812 192.15437Q300.53125 192.15437 300.07812 192.62312Q299.625 193.07625 299.625 193.90437L298.54688 193.90437Q298.54688 192.71687 299.29688 191.99812Q300.0625 191.26375 301.32812 191.26375Q302.53125 191.26375 303.21875 191.88875Q303.90625 192.51375 303.90625 193.56062Q303.90625 194.81062 302.29688 196.56062L300.01562 199.02937L304.29688 199.02937L304.29688 199.92Z" fill-rule="nonzero"/><path stroke="#cccccc" stroke-width="1.0" stroke-linecap="butt" d="M389.62 258.0C389.62 212.37024 352.62976 175.38 307.0 175.38C261.37024 175.38 224.38 212.37024 224.38 258.0C224.38 303.62976 261.37024 340.62 307.0 340.62C352.62976 340.62 389.62 303.62976 389.62 258.0" fill-rule="nonzero"/><path fill="#000000" d="M300.28125 167.58313L301.09375 167.58313Q301.875 167.5675 302.3125 167.17688Q302.75 166.78625 302.75 166.11438Q302.75 164.61438 301.25 164.61438Q300.54688 164.61438 300.125 165.02063Q299.71875 165.42688 299.71875 166.08313L298.625 166.08313Q298.625 165.0675 299.35938 164.39563Q300.10938 163.72375 301.25 163.72375Q302.45312 163.72375 303.14062 164.36438Q303.82812 165.005 303.82812 166.14563Q303.82812 166.70813 303.46875 167.22375Q303.10938 167.73938 302.48438 168.005Q303.1875 168.22375 303.5625 168.73938Q303.95312 169.255 303.95312 170.005Q303.95312 171.14563 303.20312 171.83313Q302.45312 172.505 301.25 172.505Q300.0625 172.505 299.29688 171.84875Q298.54688 171.1925 298.54688 170.13L299.64062 170.13Q299.64062 170.80188 300.07812 171.20813Q300.51562 171.61438 301.26562 171.61438Q302.04688 171.61438 302.45312 171.20813Q302.875 170.78625 302.875 170.02063Q302.875 169.28625 302.42188 168.89563Q301.96875 168.48938 301.09375 168.47375L300.28125 168.47375L300.28125 167.58313Z" fill-rule="nonzero"/><path stroke="#cccccc" stroke-width="1.0" stroke-linecap="butt" d="M417.16 258.0C417.16 197.16031 367.8397 147.84 307.0 147.84C246.16031 147.84 196.84 197.16031 196.84 258.0C196.84 318.8397 246.16031 368.16 307.0 368.16C367.8397 368.16 417.16 318.8397 417.16 258.0" fill-rule="nonzero"/><path fill="#000000" d="M303.28125 141.98062L304.46875 141.98062L304.46875 142.85562L303.28125 142.85562L303.28125 144.84L302.20312 144.84L302.20312 142.85562L298.3125 142.85562L298.3125 142.215L302.125 136.30875L303.28125 136.30875L303.28125 141.98062ZM299.54688 141.98062L302.20312 141.98062L302.20312 137.79312L302.0625 138.0275L299.54688 141.98062Z" fill-rule="nonzero"/><path stroke="#cccccc" stroke-width="1.0" stroke-linecap="butt" d="M444.7 258.0C444.7 181.9504 383.04962 120.3 307.0 120.3C230.9504 120.3 169.3 181.9504 169.3 258.0C169.3 334.04962 230.9504 395.7 307.0 395.7C383.04962 395.7 444.7 334.04962 444.7 258.0" fill-rule="nonzero"/><path fill="#000000" d="M299.20312 113.01875L299.64062 108.76875L304.01562 108.76875L304.01562 109.76875L300.5625 109.76875L300.29688 112.09688Q300.9375 111.72188 301.73438 111.72188Q302.89062 111.72188 303.57812 112.50313Q304.26562 113.26875 304.26562 114.58125Q304.26562 115.89375 303.54688 116.65938Q302.84375 117.425 301.5625 117.425Q300.4375 117.425 299.71875 116.8Q299.0 116.15938 298.90625 115.05L299.92188 115.05Q300.03125 115.78438 300.45312 116.15938Q300.875 116.53438 301.5625 116.53438Q302.3125 116.53438 302.75 116.01875Q303.1875 115.50313 303.1875 114.59688Q303.1875 113.7375 302.71875 113.22188Q302.25 112.70625 301.46875 112.70625Q300.76562 112.70625 300.35938 113.00313L300.07812 113.2375L299.20312 113.01875Z" fill-rule="nonzero"/><path stroke="#cccccc" stroke-width="1.0" stroke-linecap="butt" d="M307.0 258.0L307.0 120.0" fill-rule="nonzero"/><path fill="#000000" d="M290.76562 51.796875Q290.60938 53.140625 289.76562 53.890625Q288.92188 54.625 287.53125 54.625Q286.01562 54.625 285.10938 53.546875Q284.20312 52.453125 284.20312 50.625L284.20312 49.8125Q284.20312 48.625 284.625 47.71875Q285.04688 46.8125 285.82812 46.328125Q286.60938 45.84375 287.625 45.84375Q288.98438 45.84375 289.79688 46.609375Q290.625 47.375 290.76562 48.703125L289.64062 48.703125Q289.48438 47.6875 289.0 47.234375Q288.51562 46.78125 287.625 46.78125Q286.54688 46.78125 285.9375 47.578125Q285.32812 48.375 285.32812 49.84375L285.32812 50.671875Q285.32812 52.0625 285.90625 52.890625Q286.48438 53.703125 287.53125 53.703125Q288.46875 53.703125 288.96875 53.28125Q289.46875 52.84375 289.64062 51.796875L290.76562 51.796875ZM296.23438 54.5Q296.14062 54.3125 296.07812 53.828125Q295.32812 54.625 294.28125 54.625Q293.34375 54.625 292.73438 54.09375Q292.14062 53.5625 292.14062 52.734375Q292.14062 51.75 292.89062 51.203125Q293.64062 50.65625 295.01562 50.65625L296.0625 50.65625L296.0625 50.15625Q296.0625 49.59375 295.71875 49.265625Q295.39062 48.921875 294.71875 48.921875Q294.14062 48.921875 293.75 49.21875Q293.35938 49.5 293.35938 49.921875L292.26562 49.921875Q292.26562 49.4375 292.59375 49.0Q292.9375 48.5625 293.51562 48.3125Q294.09375 48.046875 294.78125 48.046875Q295.89062 48.046875 296.5 48.59375Q297.125 49.140625 297.15625 50.09375L297.15625 53.015625Q297.15625 53.890625 297.375 54.40625L297.375 54.5L296.23438 54.5ZM294.4375 53.671875Q294.95312 53.671875 295.40625 53.40625Q295.85938 53.140625 296.0625 52.71875L296.0625 51.421875L295.21875 51.421875Q293.21875 51.421875 293.21875 52.59375Q293.21875 53.09375 293.5625 53.390625Q293.90625 53.671875 294.4375 53.671875ZM300.5 54.5L299.42188 54.5L299.42188 45.5L300.5 45.5L300.5 54.5ZM304.85938 53.734375Q305.4375 53.734375 305.875 53.390625Q306.3125 53.03125 306.35938 52.5L307.39062 52.5Q307.35938 53.046875 307.0 53.546875Q306.65625 54.03125 306.07812 54.328125Q305.51562 54.625 304.85938 54.625Q303.5625 54.625 302.79688 53.765625Q302.04688 52.890625 302.04688 51.390625L302.04688 51.203125Q302.04688 50.28125 302.375 49.5625Q302.71875 48.84375 303.34375 48.453125Q303.98438 48.046875 304.85938 48.046875Q305.92188 48.046875 306.625 48.6875Q307.34375 49.3125 307.39062 50.34375L306.35938 50.34375Q306.3125 49.71875 305.89062 49.328125Q305.46875 48.9375 304.85938 48.9375Q304.03125 48.9375 303.57812 49.53125Q303.125 50.125 303.125 51.25L303.125 51.453125Q303.125 52.546875 303.57812 53.140625Q304.03125 53.734375 304.85938 53.734375ZM312.23438 53.875Q311.60938 54.625 310.375 54.625Q309.35938 54.625 308.82812 54.03125Q308.29688 53.4375 308.29688 52.28125L308.29688 48.15625L309.375 48.15625L309.375 52.25Q309.375 53.703125 310.54688 53.703125Q311.79688 53.703125 312.20312 52.765625L312.20312 48.15625L313.29688 48.15625L313.29688 54.5L312.26562 54.5L312.23438 53.875ZM316.5 54.5L315.42188 54.5L315.42188 45.5L316.5 45.5L316.5 54.5ZM322.23438 53.875Q321.60938 54.625 320.375 54.625Q319.35938 54.625 318.82812 54.03125Q318.29688 53.4375 318.29688 52.28125L318.29688 48.15625L319.375 48.15625L319.375 52.25Q319.375 53.703125 320.54688 53.703125Q321.79688 53.703125 322.20312 52.765625L322.20312 48.15625L323.29688 48.15625L323.29688 54.5L322.26562 54.5L322.23438 53.875ZM329.01562 52.8125Q329.01562 52.375 328.67188 52.140625Q328.34375 51.890625 327.51562 51.71875Q326.70312 51.546875 326.21875 51.296875Q325.73438 51.046875 325.5 50.71875Q325.28125 50.375 325.28125 49.90625Q325.28125 49.125 325.9375 48.59375Q326.59375 48.046875 327.625 48.046875Q328.70312 48.046875 329.35938 48.609375Q330.03125 49.15625 330.03125 50.015625L328.95312 50.015625Q328.95312 49.578125 328.5625 49.265625Q328.1875 48.9375 327.625 48.9375Q327.03125 48.9375 326.6875 49.203125Q326.35938 49.453125 326.35938 49.859375Q326.35938 50.25 326.67188 50.453125Q326.98438 50.65625 327.79688 50.84375Q328.60938 51.015625 329.10938 51.265625Q329.60938 51.515625 329.84375 51.875Q330.09375 52.234375 330.09375 52.734375Q330.09375 53.59375 329.40625 54.109375Q328.73438 54.625 327.65625 54.625Q326.89062 54.625 326.29688 54.359375Q325.71875 54.078125 325.39062 53.59375Q325.0625 53.109375 325.0625 52.546875L326.14062 52.546875Q326.17188 53.09375 326.57812 53.421875Q326.98438 53.734375 327.65625 53.734375Q328.26562 53.734375 328.64062 53.484375Q329.01562 53.234375 329.01562 52.8125Z" fill-rule="nonzero"/><path stroke="#cccccc" stroke-width="1.0" stroke-linecap="butt" d="M307.0 258.0L404.0 161.0" fill-rule="nonzero"/><path fill="#000000" d="M417.125 114.578125L421.17188 114.578125L421.17188 115.5L415.98438 115.5L415.98438 106.96875L417.125 106.96875L417.125 114.578125ZM423.0 115.5L421.92188 115.5L421.92188 109.15625L423.0 109.15625L423.0 115.5ZM421.82812 107.484375Q421.82812 107.21875 421.98438 107.03125Q422.15625 106.84375 422.46875 106.84375Q422.78125 106.84375 422.9375 107.03125Q423.10938 107.21875 423.10938 107.484375Q423.10938 107.734375 422.9375 107.921875Q422.78125 108.09375 422.46875 108.09375Q422.15625 108.09375 421.98438 107.921875Q421.82812 107.734375 421.82812 107.484375ZM425.84375 109.15625L425.875 109.953125Q426.60938 109.046875 427.78125 109.046875Q429.79688 109.046875 429.8125 111.3125L429.8125 115.5L428.71875 115.5L428.71875 111.296875Q428.71875 110.625 428.40625 110.296875Q428.10938 109.96875 427.45312 109.96875Q426.92188 109.96875 426.51562 110.25Q426.125 110.53125 425.90625 110.984375L425.90625 115.5L424.82812 115.5L424.82812 109.15625L425.84375 109.15625ZM434.45312 115.625Q433.15625 115.625 432.34375 114.78125Q431.54688 113.921875 431.54688 112.5L431.54688 112.3125Q431.54688 111.359375 431.90625 110.625Q432.26562 109.875 432.90625 109.46875Q433.5625 109.046875 434.3125 109.046875Q435.54688 109.046875 436.23438 109.859375Q436.92188 110.671875 436.92188 112.1875L436.92188 112.640625L432.625 112.640625Q432.65625 113.578125 433.17188 114.15625Q433.70312 114.734375 434.51562 114.734375Q435.07812 114.734375 435.46875 114.5Q435.875 114.265625 436.1875 113.875L436.84375 114.390625Q436.04688 115.625 434.45312 115.625ZM434.3125 109.9375Q433.65625 109.9375 433.20312 110.421875Q432.76562 110.890625 432.67188 111.75L435.84375 111.75L435.84375 111.671875Q435.79688 110.84375 435.39062 110.390625Q435.0 109.9375 434.3125 109.9375ZM441.73438 115.5Q441.64062 115.3125 441.57812 114.828125Q440.82812 115.625 439.78125 115.625Q438.84375 115.625 438.23438 115.09375Q437.64062 114.5625 437.64062 113.734375Q437.64062 112.75 438.39062 112.203125Q439.14062 111.65625 440.51562 111.65625L441.5625 111.65625L441.5625 111.15625Q441.5625 110.59375 441.21875 110.265625Q440.89062 109.921875 440.21875 109.921875Q439.64062 109.921875 439.25 110.21875Q438.85938 110.5 438.85938 110.921875L437.76562 110.921875Q437.76562 110.4375 438.09375 110.0Q438.4375 109.5625 439.01562 109.3125Q439.59375 109.046875 440.28125 109.046875Q441.39062 109.046875 442.0 109.59375Q442.625 110.140625 442.65625 111.09375L442.65625 114.015625Q442.65625 114.890625 442.875 115.40625L442.875 115.5L441.73438 115.5ZM439.9375 114.671875Q440.45312 114.671875 440.90625 114.40625Q441.35938 114.140625 441.5625 113.71875L441.5625 112.421875L440.71875 112.421875Q438.71875 112.421875 438.71875 113.59375Q438.71875 114.09375 439.0625 114.390625Q439.40625 114.671875 439.9375 114.671875ZM447.89062 110.125Q447.64062 110.09375 447.35938 110.09375Q446.28125 110.09375 445.90625 111.0L445.90625 115.5L444.82812 115.5L444.82812 109.15625L445.875 109.15625L445.89062 109.890625Q446.42188 109.046875 447.40625 109.046875Q447.71875 109.046875 447.89062 109.125L447.89062 110.125ZM456.70312 113.265625L453.125 113.265625L452.32812 115.5L451.17188 115.5L454.42188 106.96875L455.40625 106.96875L458.67188 115.5L457.51562 115.5L456.70312 113.265625ZM453.46875 112.34375L456.375 112.34375L454.92188 108.359375L453.46875 112.34375ZM461.0 115.5L459.92188 115.5L459.92188 106.5L461.0 106.5L461.0 115.5ZM462.5625 112.28125Q462.5625 110.796875 463.25 109.921875Q463.9375 109.046875 465.0625 109.046875Q466.21875 109.046875 466.875 109.859375L466.92188 109.15625L467.92188 109.15625L467.92188 115.34375Q467.92188 116.578125 467.1875 117.28125Q466.45312 118.0 465.23438 118.0Q464.54688 118.0 463.89062 117.703125Q463.23438 117.40625 462.89062 116.90625L463.45312 116.25Q464.14062 117.109375 465.15625 117.109375Q465.9375 117.109375 466.375 116.65625Q466.82812 116.21875 466.82812 115.40625L466.82812 114.859375Q466.17188 115.625 465.04688 115.625Q463.9375 115.625 463.25 114.734375Q462.5625 113.828125 462.5625 112.28125ZM463.65625 112.40625Q463.65625 113.46875 464.09375 114.09375Q464.53125 114.703125 465.32812 114.703125Q466.34375 114.703125 466.82812 113.765625L466.82812 110.875Q466.32812 109.96875 465.32812 109.96875Q464.54688 109.96875 464.09375 110.578125Q463.65625 111.1875 463.65625 112.40625ZM472.45312 115.625Q471.15625 115.625 470.34375 114.78125Q469.54688 113.921875 469.54688 112.5L469.54688 112.3125Q469.54688 111.359375 469.90625 110.625Q470.26562 109.875 470.90625 109.46875Q471.5625 109.046875 472.3125 109.046875Q473.54688 109.046875 474.23438 109.859375Q474.92188 110.671875 474.92188 112.1875L474.92188 112.640625L470.625 112.640625Q470.65625 113.578125 471.17188 114.15625Q471.70312 114.734375 472.51562 114.734375Q473.07812 114.734375 473.46875 114.5Q473.875 114.265625 474.1875 113.875L474.84375 114.390625Q474.04688 115.625 472.45312 115.625ZM472.3125 109.9375Q471.65625 109.9375 471.20312 110.421875Q470.76562 110.890625 470.67188 111.75L473.84375 111.75L473.84375 111.671875Q473.79688 110.84375 473.39062 110.390625Q473.0 109.9375 472.3125 109.9375ZM481.1875 112.40625Q481.1875 113.859375 480.51562 114.75Q479.85938 115.625 478.73438 115.625Q477.53125 115.625 476.875 114.765625L476.8125 115.5L475.82812 115.5L475.82812 106.5L476.90625 106.5L476.90625 109.859375Q477.5625 109.046875 478.71875 109.046875Q479.875 109.046875 480.53125 109.921875Q481.1875 110.78125 481.1875 112.3125L481.1875 112.40625ZM480.10938 112.28125Q480.10938 111.171875 479.67188 110.578125Q479.25 109.96875 478.45312 109.96875Q477.375 109.96875 476.90625 110.953125L476.90625 113.703125Q477.40625 114.703125 478.45312 114.703125Q479.23438 114.703125 479.67188 114.09375Q480.10938 113.484375 480.10938 112.28125ZM485.89062 110.125Q485.64062 110.09375 485.35938 110.09375Q484.28125 110.09375 483.90625 111.0L483.90625 115.5L482.82812 115.5L482.82812 109.15625L483.875 109.15625L483.89062 109.890625Q484.42188 109.046875 485.40625 109.046875Q485.71875 109.046875 485.89062 109.125L485.89062 110.125ZM490.73438 115.5Q490.64062 115.3125 490.57812 114.828125Q489.82812 115.625 488.78125 115.625Q487.84375 115.625 487.23438 115.09375Q486.64062 114.5625 486.64062 113.734375Q486.64062 112.75 487.39062 112.203125Q488.14062 111.65625 489.51562 111.65625L490.5625 111.65625L490.5625 111.15625Q490.5625 110.59375 490.21875 110.265625Q489.89062 109.921875 489.21875 109.921875Q488.64062 109.921875 488.25 110.21875Q487.85938 110.5 487.85938 110.921875L486.76562 110.921875Q486.76562 110.4375 487.09375 110.0Q487.4375 109.5625 488.01562 109.3125Q488.59375 109.046875 489.28125 109.046875Q490.39062 109.046875 491.0 109.59375Q491.625 110.140625 491.65625 111.09375L491.65625 114.015625Q491.65625 114.890625 491.875 115.40625L491.875 115.5L490.73438 115.5ZM488.9375 114.671875Q489.45312 114.671875 489.90625 114.40625Q490.35938 114.140625 490.5625 113.71875L490.5625 112.421875L489.71875 112.421875Q487.71875 112.421875 487.71875 113.59375Q487.71875 114.09375 488.0625 114.390625Q488.40625 114.671875 488.9375 114.671875Z" fill-rule="nonzero"/><path stroke="#cccccc" stroke-width="1.0" stroke-linecap="butt" d="M307.0 258.0L445.0 258.0" fill-rule="nonzero"/><path fill="#000000" d="M464.60938 259.15625L464.60938 262.5L463.48438 262.5L463.48438 253.96875L466.64062 253.96875Q468.03125 253.96875 468.82812 254.6875Q469.625 255.39062 469.625 256.57812Q469.625 257.8125 468.84375 258.48438Q468.07812 259.15625 466.625 259.15625L464.60938 259.15625ZM464.60938 258.23438L466.64062 258.23438Q467.54688 258.23438 468.01562 257.8125Q468.5 257.39062 468.5 256.59375Q468.5 255.82812 468.01562 255.375Q467.54688 254.90625 466.70312 254.89062L464.60938 254.89062L464.60938 258.23438ZM474.39062 257.125Q474.14062 257.09375 473.85938 257.09375Q472.78125 257.09375 472.40625 258.0L472.40625 262.5L471.32812 262.5L471.32812 256.15625L472.375 256.15625L472.39062 256.89062Q472.92188 256.04688 473.90625 256.04688Q474.21875 256.04688 474.39062 256.125L474.39062 257.125ZM475.03125 259.26562Q475.03125 258.34375 475.39062 257.59375Q475.76562 256.84375 476.42188 256.45312Q477.07812 256.04688 477.90625 256.04688Q479.20312 256.04688 480.0 256.9375Q480.8125 257.82812 480.8125 259.32812L480.8125 259.40625Q480.8125 260.32812 480.45312 261.0625Q480.09375 261.79688 479.4375 262.21875Q478.78125 262.625 477.92188 262.625Q476.64062 262.625 475.82812 261.73438Q475.03125 260.82812 475.03125 259.34375L475.03125 259.26562ZM476.125 259.40625Q476.125 260.45312 476.60938 261.09375Q477.10938 261.73438 477.92188 261.73438Q478.75 261.73438 479.23438 261.09375Q479.71875 260.4375 479.71875 259.26562Q479.71875 258.23438 479.21875 257.59375Q478.73438 256.9375 477.90625 256.9375Q477.10938 256.9375 476.60938 257.57812Q476.125 258.20312 476.125 259.40625ZM487.6875 259.40625Q487.6875 260.85938 487.01562 261.75Q486.35938 262.625 485.23438 262.625Q484.03125 262.625 483.375 261.76562L483.3125 262.5L482.32812 262.5L482.32812 253.5L483.40625 253.5L483.40625 256.85938Q484.0625 256.04688 485.21875 256.04688Q486.375 256.04688 487.03125 256.92188Q487.6875 257.78125 487.6875 259.3125L487.6875 259.40625ZM486.60938 259.28125Q486.60938 258.17188 486.17188 257.57812Q485.75 256.96875 484.95312 256.96875Q483.875 256.96875 483.40625 257.95312L483.40625 260.70312Q483.90625 261.70312 484.95312 261.70312Q485.73438 261.70312 486.17188 261.09375Q486.60938 260.48438 486.60938 259.28125ZM493.23438 262.5Q493.14062 262.3125 493.07812 261.82812Q492.32812 262.625 491.28125 262.625Q490.34375 262.625 489.73438 262.09375Q489.14062 261.5625 489.14062 260.73438Q489.14062 259.75 489.89062 259.20312Q490.64062 258.65625 492.01562 258.65625L493.0625 258.65625L493.0625 258.15625Q493.0625 257.59375 492.71875 257.26562Q492.39062 256.92188 491.71875 256.92188Q491.14062 256.92188 490.75 257.21875Q490.35938 257.5 490.35938 257.92188L489.26562 257.92188Q489.26562 257.4375 489.59375 257.0Q489.9375 256.5625 490.51562 256.3125Q491.09375 256.04688 491.78125 256.04688Q492.89062 256.04688 493.5 256.59375Q494.125 257.14062 494.15625 258.09375L494.15625 261.01562Q494.15625 261.89062 494.375 262.40625L494.375 262.5L493.23438 262.5ZM491.4375 261.67188Q491.95312 261.67188 492.40625 261.40625Q492.85938 261.14062 493.0625 260.71875L493.0625 259.42188L492.21875 259.42188Q490.21875 259.42188 490.21875 260.59375Q490.21875 261.09375 490.5625 261.39062Q490.90625 261.67188 491.4375 261.67188ZM501.6875 259.40625Q501.6875 260.85938 501.01562 261.75Q500.35938 262.625 499.23438 262.625Q498.03125 262.625 497.375 261.76562L497.3125 262.5L496.32812 262.5L496.32812 253.5L497.40625 253.5L497.40625 256.85938Q498.0625 256.04688 499.21875 256.04688Q500.375 256.04688 501.03125 256.92188Q501.6875 257.78125 501.6875 259.3125L501.6875 259.40625ZM500.60938 259.28125Q500.60938 258.17188 500.17188 257.57812Q499.75 256.96875 498.95312 256.96875Q497.875 256.96875 497.40625 257.95312L497.40625 260.70312Q497.90625 261.70312 498.95312 261.70312Q499.73438 261.70312 500.17188 261.09375Q500.60938 260.48438 500.60938 259.28125ZM504.5 262.5L503.42188 262.5L503.42188 256.15625L504.5 256.15625L504.5 262.5ZM503.32812 254.48438Q503.32812 254.21875 503.48438 254.03125Q503.65625 253.84375 503.96875 253.84375Q504.28125 253.84375 504.4375 254.03125Q504.60938 254.21875 504.60938 254.48438Q504.60938 254.73438 504.4375 254.92188Q504.28125 255.09375 503.96875 255.09375Q503.65625 255.09375 503.48438 254.92188Q503.32812 254.73438 503.32812 254.48438ZM507.5 262.5L506.42188 262.5L506.42188 253.5L507.5 253.5L507.5 262.5ZM510.5 262.5L509.42188 262.5L509.42188 256.15625L510.5 256.15625L510.5 262.5ZM509.32812 254.48438Q509.32812 254.21875 509.48438 254.03125Q509.65625 253.84375 509.96875 253.84375Q510.28125 253.84375 510.4375 254.03125Q510.60938 254.21875 510.60938 254.48438Q510.60938 254.73438 510.4375 254.92188Q510.28125 255.09375 509.96875 255.09375Q509.65625 255.09375 509.48438 254.92188Q509.32812 254.73438 509.32812 254.48438ZM513.7969 254.625L513.7969 256.15625L514.96875 256.15625L514.96875 257.0L513.7969 257.0L513.7969 260.92188Q513.7969 261.3125 513.9531 261.5Q514.1094 261.6875 514.4844 261.6875Q514.6719 261.6875 515.0 261.625L515.0 262.5Q514.5781 262.625 514.1719 262.625Q513.4531 262.625 513.0781 262.1875Q512.7031 261.73438 512.7031 260.92188L512.7031 257.0L511.54688 257.0L511.54688 256.15625L512.7031 256.15625L512.7031 254.625L513.7969 254.625ZM517.5 262.5L516.4219 262.5L516.4219 256.15625L517.5 256.15625L517.5 262.5ZM516.3281 254.48438Q516.3281 254.21875 516.4844 254.03125Q516.65625 253.84375 516.96875 253.84375Q517.28125 253.84375 517.4375 254.03125Q517.6094 254.21875 517.6094 254.48438Q517.6094 254.73438 517.4375 254.92188Q517.28125 255.09375 516.96875 255.09375Q516.65625 255.09375 516.4844 254.92188Q516.3281 254.73438 516.3281 254.48438ZM521.9531 262.625Q520.65625 262.625 519.84375 261.78125Q519.0469 260.92188 519.0469 259.5L519.0469 259.3125Q519.0469 258.35938 519.40625 257.625Q519.7656 256.875 520.40625 256.46875Q521.0625 256.04688 521.8125 256.04688Q523.0469 256.04688 523.7344 256.85938Q524.4219 257.67188 524.4219 259.1875L524.4219 259.64062L520.125 259.64062Q520.15625 260.57812 520.6719 261.15625Q521.2031 261.73438 522.0156 261.73438Q522.5781 261.73438 522.96875 261.5Q523.375 261.26562 523.6875 260.875L524.34375 261.39062Q523.5469 262.625 521.9531 262.625ZM521.8125 256.9375Q521.15625 256.9375 520.7031 257.42188Q520.2656 257.89062 520.1719 258.75L523.34375 258.75L523.34375 258.67188Q523.2969 257.84375 522.8906 257.39062Q522.5 256.9375 521.8125 256.9375ZM529.0156 260.8125Q529.0156 260.375 528.6719 260.14062Q528.34375 259.89062 527.5156 259.71875Q526.7031 259.54688 526.21875 259.29688Q525.7344 259.04688 525.5 258.71875Q525.28125 258.375 525.28125 257.90625Q525.28125 257.125 525.9375 256.59375Q526.59375 256.04688 527.625 256.04688Q528.7031 256.04688 529.3594 256.60938Q530.03125 257.15625 530.03125 258.01562L528.9531 258.01562Q528.9531 257.57812 528.5625 257.26562Q528.1875 256.9375 527.625 256.9375Q527.03125 256.9375 526.6875 257.20312Q526.3594 257.45312 526.3594 257.85938Q526.3594 258.25 526.6719 258.45312Q526.9844 258.65625 527.7969 258.84375Q528.6094 259.01562 529.1094 259.26562Q529.6094 259.51562 529.84375 259.875Q530.09375 260.23438 530.09375 260.73438Q530.09375 261.59375 529.40625 262.10938Q528.7344 262.625 527.65625 262.625Q526.8906 262.625 526.2969 262.35938Q525.71875 262.07812 525.3906 261.59375Q525.0625 261.10938 525.0625 260.54688L526.1406 260.54688Q526.1719 261.09375 526.5781 261.42188Q526.9844 261.73438 527.65625 261.73438Q528.2656 261.73438 528.6406 261.48438Q529.0156 261.23438 529.0156 260.8125ZM531.53125 263.23438L530.6094 263.23438L534.1719 253.96875L535.09375 253.96875L531.53125 263.23438ZM539.0 258.70312Q537.5625 258.28125 536.8906 257.67188Q536.2344 257.0625 536.2344 256.17188Q536.2344 255.17188 537.03125 254.51562Q537.84375 253.84375 539.1406 253.84375Q540.0156 253.84375 540.7031 254.1875Q541.3906 254.53125 541.7656 255.125Q542.15625 255.71875 542.15625 256.4375L541.0156 256.4375Q541.0156 255.65625 540.5156 255.21875Q540.03125 254.78125 539.1406 254.78125Q538.3125 254.78125 537.84375 255.15625Q537.375 255.51562 537.375 256.15625Q537.375 256.6875 537.8125 257.04688Q538.2656 257.40625 539.3281 257.70312Q540.3906 258.0 540.9844 258.35938Q541.59375 258.71875 541.875 259.20312Q542.1719 259.6875 542.1719 260.32812Q542.1719 261.375 541.3594 262.0Q540.5469 262.625 539.2031 262.625Q538.3125 262.625 537.5469 262.28125Q536.7969 261.9375 536.375 261.35938Q535.96875 260.76562 535.96875 260.03125L537.09375 260.03125Q537.09375 260.79688 537.6719 261.25Q538.25 261.70312 539.2031 261.70312Q540.09375 261.70312 540.5625 261.34375Q541.03125 260.96875 541.03125 260.34375Q541.03125 259.71875 540.59375 259.375Q540.15625 259.03125 539.0 258.70312ZM544.7969 254.625L544.7969 256.15625L545.96875 256.15625L545.96875 257.0L544.7969 257.0L544.7969 260.92188Q544.7969 261.3125 544.9531 261.5Q545.1094 261.6875 545.4844 261.6875Q545.6719 261.6875 546.0 261.625L546.0 262.5Q545.5781 262.625 545.1719 262.625Q544.4531 262.625 544.0781 262.1875Q543.7031 261.73438 543.7031 260.92188L543.7031 257.0L542.5469 257.0L542.5469 256.15625L543.7031 256.15625L543.7031 254.625L544.7969 254.625ZM551.2344 262.5Q551.1406 262.3125 551.0781 261.82812Q550.3281 262.625 549.28125 262.625Q548.34375 262.625 547.7344 262.09375Q547.1406 261.5625 547.1406 260.73438Q547.1406 259.75 547.8906 259.20312Q548.6406 258.65625 550.0156 258.65625L551.0625 258.65625L551.0625 258.15625Q551.0625 257.59375 550.71875 257.26562Q550.3906 256.92188 549.71875 256.92188Q549.1406 256.92188 548.75 257.21875Q548.3594 257.5 548.3594 257.92188L547.2656 257.92188Q547.2656 257.4375 547.59375 257.0Q547.9375 256.5625 548.5156 256.3125Q549.09375 256.04688 549.78125 256.04688Q550.8906 256.04688 551.5 256.59375Q552.125 257.14062 552.15625 258.09375L552.15625 261.01562Q552.15625 261.89062 552.375 262.40625L552.375 262.5L551.2344 262.5ZM549.4375 261.67188Q549.9531 261.67188 550.40625 261.40625Q550.8594 261.14062 551.0625 260.71875L551.0625 259.42188L550.21875 259.42188Q548.21875 259.42188 548.21875 260.59375Q548.21875 261.09375 548.5625 261.39062Q548.90625 261.67188 549.4375 261.67188ZM555.7969 254.625L555.7969 256.15625L556.96875 256.15625L556.96875 257.0L555.7969 257.0L555.7969 260.92188Q555.7969 261.3125 555.9531 261.5Q556.1094 261.6875 556.4844 261.6875Q556.6719 261.6875 557.0 261.625L557.0 262.5Q556.5781 262.625 556.1719 262.625Q555.4531 262.625 555.0781 262.1875Q554.7031 261.73438 554.7031 260.92188L554.7031 257.0L553.5469 257.0L553.5469 256.15625L554.7031 256.15625L554.7031 254.625L555.7969 254.625ZM559.5 262.5L558.4219 262.5L558.4219 256.15625L559.5 256.15625L559.5 262.5ZM558.3281 254.48438Q558.3281 254.21875 558.4844 254.03125Q558.65625 253.84375 558.96875 253.84375Q559.28125 253.84375 559.4375 254.03125Q559.6094 254.21875 559.6094 254.48438Q559.6094 254.73438 559.4375 254.92188Q559.28125 255.09375 558.96875 255.09375Q558.65625 255.09375 558.4844 254.92188Q558.3281 254.73438 558.3281 254.48438ZM565.0156 260.8125Q565.0156 260.375 564.6719 260.14062Q564.34375 259.89062 563.5156 259.71875Q562.7031 259.54688 562.21875 259.29688Q561.7344 259.04688 561.5 258.71875Q561.28125 258.375 561.28125 257.90625Q561.28125 257.125 561.9375 256.59375Q562.59375 256.04688 563.625 256.04688Q564.7031 256.04688 565.3594 256.60938Q566.03125 257.15625 566.03125 258.01562L564.9531 258.01562Q564.9531 257.57812 564.5625 257.26562Q564.1875 256.9375 563.625 256.9375Q563.03125 256.9375 562.6875 257.20312Q562.3594 257.45312 562.3594 257.85938Q562.3594 258.25 562.6719 258.45312Q562.9844 258.65625 563.7969 258.84375Q564.6094 259.01562 565.1094 259.26562Q565.6094 259.51562 565.84375 259.875Q566.09375 260.23438 566.09375 260.73438Q566.09375 261.59375 565.40625 262.10938Q564.7344 262.625 563.65625 262.625Q562.8906 262.625 562.2969 262.35938Q561.71875 262.07812 561.3906 261.59375Q561.0625 261.10938 561.0625 260.54688L562.1406 260.54688Q562.1719 261.09375 562.5781 261.42188Q562.9844 261.73438 563.65625 261.73438Q564.2656 261.73438 564.6406 261.48438Q565.0156 261.23438 565.0156 260.8125ZM568.7969 254.625L568.7969 256.15625L569.96875 256.15625L569.96875 257.0L568.7969 257.0L568.7969 260.92188Q568.7969 261.3125 568.9531 261.5Q569.1094 261.6875 569.4844 261.6875Q569.6719 261.6875 570.0 261.625L570.0 262.5Q569.5781 262.625 569.1719 262.625Q568.4531 262.625 568.0781 262.1875Q567.7031 261.73438 567.7031 260.92188L567.7031 257.0L566.5469 257.0L566.5469 256.15625L567.7031 256.15625L567.7031 254.625L568.7969 254.625ZM572.5 262.5L571.4219 262.5L571.4219 256.15625L572.5 256.15625L572.5 262.5ZM571.3281 254.48438Q571.3281 254.21875 571.4844 254.03125Q571.65625 253.84375 571.96875 253.84375Q572.28125 253.84375 572.4375 254.03125Q572.6094 254.21875 572.6094 254.48438Q572.6094 254.73438 572.4375 254.92188Q572.28125 255.09375 571.96875 255.09375Q571.65625 255.09375 571.4844 254.92188Q571.3281 254.73438 571.3281 254.48438ZM576.8594 261.73438Q577.4375 261.73438 577.875 261.39062Q578.3125 261.03125 578.3594 260.5L579.3906 260.5Q579.3594 261.04688 579.0 261.54688Q578.65625 262.03125 578.0781 262.32812Q577.5156 262.625 576.8594 262.625Q575.5625 262.625 574.7969 261.76562Q574.0469 260.89062 574.0469 259.39062L574.0469 259.20312Q574.0469 258.28125 574.375 257.5625Q574.71875 256.84375 575.34375 256.45312Q575.9844 256.04688 576.8594 256.04688Q577.9219 256.04688 578.625 256.6875Q579.34375 257.3125 579.3906 258.34375L578.3594 258.34375Q578.3125 257.71875 577.8906 257.32812Q577.46875 256.9375 576.8594 256.9375Q576.03125 256.9375 575.5781 257.53125Q575.125 258.125 575.125 259.25L575.125 259.45312Q575.125 260.54688 575.5781 261.14062Q576.03125 261.73438 576.8594 261.73438ZM584.0156 260.8125Q584.0156 260.375 583.6719 260.14062Q583.34375 259.89062 582.5156 259.71875Q581.7031 259.54688 581.21875 259.29688Q580.7344 259.04688 580.5 258.71875Q580.28125 258.375 580.28125 257.90625Q580.28125 257.125 580.9375 256.59375Q581.59375 256.04688 582.625 256.04688Q583.7031 256.04688 584.3594 256.60938Q585.03125 257.15625 585.03125 258.01562L583.9531 258.01562Q583.9531 257.57812 583.5625 257.26562Q583.1875 256.9375 582.625 256.9375Q582.03125 256.9375 581.6875 257.20312Q581.3594 257.45312 581.3594 257.85938Q581.3594 258.25 581.6719 258.45312Q581.9844 258.65625 582.7969 258.84375Q583.6094 259.01562 584.1094 259.26562Q584.6094 259.51562 584.84375 259.875Q585.09375 260.23438 585.09375 260.73438Q585.09375 261.59375 584.40625 262.10938Q583.7344 262.625 582.65625 262.625Q581.8906 262.625 581.2969 262.35938Q580.71875 262.07812 580.3906 261.59375Q580.0625 261.10938 580.0625 260.54688L581.1406 260.54688Q581.1719 261.09375 581.5781 261.42188Q581.9844 261.73438 582.65625 261.73438Q583.2656 261.73438 583.6406 261.48438Q584.0156 261.23438 584.0156 260.8125Z" fill-rule="nonzero"/><path stroke="#cccccc" stroke-width="1.0" stroke-linecap="butt" d="M307.0 258.0L404.0 355.0" fill-rule="nonzero"/><path fill="#000000" d="M396.48438 409.5L396.48438 400.96875L398.90625 400.96875Q400.01562 400.96875 400.85938 401.46875Q401.71875 401.95312 402.1875 402.85938Q402.65625 403.76562 402.65625 404.95312L402.65625 405.48438Q402.65625 406.70312 402.1875 407.60938Q401.73438 408.51562 400.85938 409.0Q400.0 409.48438 398.85938 409.5L396.48438 409.5ZM397.60938 401.89062L397.60938 408.57812L398.79688 408.57812Q400.09375 408.57812 400.8125 407.78125Q401.54688 406.96875 401.54688 405.46875L401.54688 404.96875Q401.54688 403.51562 400.85938 402.71875Q400.1875 401.90625 398.92188 401.89062L397.60938 401.89062ZM405.5 409.5L404.42188 409.5L404.42188 403.15625L405.5 403.15625L405.5 409.5ZM404.32812 401.48438Q404.32812 401.21875 404.48438 401.03125Q404.65625 400.84375 404.96875 400.84375Q405.28125 400.84375 405.4375 401.03125Q405.60938 401.21875 405.60938 401.48438Q405.60938 401.73438 405.4375 401.92188Q405.28125 402.09375 404.96875 402.09375Q404.65625 402.09375 404.48438 401.92188Q404.32812 401.73438 404.32812 401.48438ZM411.01562 407.8125Q411.01562 407.375 410.67188 407.14062Q410.34375 406.89062 409.51562 406.71875Q408.70312 406.54688 408.21875 406.29688Q407.73438 406.04688 407.5 405.71875Q407.28125 405.375 407.28125 404.90625Q407.28125 404.125 407.9375 403.59375Q408.59375 403.04688 409.625 403.04688Q410.70312 403.04688 411.35938 403.60938Q412.03125 404.15625 412.03125 405.01562L410.95312 405.01562Q410.95312 404.57812 410.5625 404.26562Q410.1875 403.9375 409.625 403.9375Q409.03125 403.9375 408.6875 404.20312Q408.35938 404.45312 408.35938 404.85938Q408.35938 405.25 408.67188 405.45312Q408.98438 405.65625 409.79688 405.84375Q410.60938 406.01562 411.10938 406.26562Q411.60938 406.51562 411.84375 406.875Q412.09375 407.23438 412.09375 407.73438Q412.09375 408.59375 411.40625 409.10938Q410.73438 409.625 409.65625 409.625Q408.89062 409.625 408.29688 409.35938Q407.71875 409.07812 407.39062 408.59375Q407.0625 408.10938 407.0625 407.54688L408.14062 407.54688Q408.17188 408.09375 408.57812 408.42188Q408.98438 408.73438 409.65625 408.73438Q410.26562 408.73438 410.64062 408.48438Q411.01562 408.23438 411.01562 407.8125ZM415.85938 408.73438Q416.4375 408.73438 416.875 408.39062Q417.3125 408.03125 417.35938 407.5L418.39062 407.5Q418.35938 408.04688 418.0 408.54688Q417.65625 409.03125 417.07812 409.32812Q416.51562 409.625 415.85938 409.625Q414.5625 409.625 413.79688 408.76562Q413.04688 407.89062 413.04688 406.39062L413.04688 406.20312Q413.04688 405.28125 413.375 404.5625Q413.71875 403.84375 414.34375 403.45312Q414.98438 403.04688 415.85938 403.04688Q416.92188 403.04688 417.625 403.6875Q418.34375 404.3125 418.39062 405.34375L417.35938 405.34375Q417.3125 404.71875 416.89062 404.32812Q416.46875 403.9375 415.85938 403.9375Q415.03125 403.9375 414.57812 404.53125Q414.125 405.125 414.125 406.25L414.125 406.45312Q414.125 407.54688 414.57812 408.14062Q415.03125 408.73438 415.85938 408.73438ZM422.39062 404.125Q422.14062 404.09375 421.85938 404.09375Q420.78125 404.09375 420.40625 405.0L420.40625 409.5L419.32812 409.5L419.32812 403.15625L420.375 403.15625L420.39062 403.89062Q420.92188 403.04688 421.90625 403.04688Q422.21875 403.04688 422.39062 403.125L422.39062 404.125ZM425.95312 409.625Q424.65625 409.625 423.84375 408.78125Q423.04688 407.92188 423.04688 406.5L423.04688 406.3125Q423.04688 405.35938 423.40625 404.625Q423.76562 403.875 424.40625 403.46875Q425.0625 403.04688 425.8125 403.04688Q427.04688 403.04688 427.73438 403.85938Q428.42188 404.67188 428.42188 406.1875L428.42188 406.64062L424.125 406.64062Q424.15625 407.57812 424.67188 408.15625Q425.20312 408.73438 426.01562 408.73438Q426.57812 408.73438 426.96875 408.5Q427.375 408.26562 427.6875 407.875L428.34375 408.39062Q427.54688 409.625 425.95312 409.625ZM425.8125 403.9375Q425.15625 403.9375 424.70312 404.42188Q424.26562 404.89062 424.17188 405.75L427.34375 405.75L427.34375 405.67188Q427.29688 404.84375 426.89062 404.39062Q426.5 403.9375 425.8125 403.9375ZM430.79688 401.625L430.79688 403.15625L431.96875 403.15625L431.96875 404.0L430.79688 404.0L430.79688 407.92188Q430.79688 408.3125 430.95312 408.5Q431.10938 408.6875 431.48438 408.6875Q431.67188 408.6875 432.0 408.625L432.0 409.5Q431.57812 409.625 431.17188 409.625Q430.45312 409.625 430.07812 409.1875Q429.70312 408.73438 429.70312 407.92188L429.70312 404.0L428.54688 404.0L428.54688 403.15625L429.70312 403.15625L429.70312 401.625L430.79688 401.625ZM435.95312 409.625Q434.65625 409.625 433.84375 408.78125Q433.04688 407.92188 433.04688 406.5L433.04688 406.3125Q433.04688 405.35938 433.40625 404.625Q433.76562 403.875 434.40625 403.46875Q435.0625 403.04688 435.8125 403.04688Q437.04688 403.04688 437.73438 403.85938Q438.42188 404.67188 438.42188 406.1875L438.42188 406.64062L434.125 406.64062Q434.15625 407.57812 434.67188 408.15625Q435.20312 408.73438 436.01562 408.73438Q436.57812 408.73438 436.96875 408.5Q437.375 408.26562 437.6875 407.875L438.34375 408.39062Q437.54688 409.625 435.95312 409.625ZM435.8125 403.9375Q435.15625 403.9375 434.70312 404.42188Q434.26562 404.89062 434.17188 405.75L437.34375 405.75L437.34375 405.67188Q437.29688 404.84375 436.89062 404.39062Q436.5 403.9375 435.8125 403.9375ZM443.9375 400.96875L446.73438 407.92188L449.51562 400.96875L450.98438 400.96875L450.98438 409.5L449.85938 409.5L449.85938 406.17188L449.96875 402.59375L447.15625 409.5L446.29688 409.5L443.5 402.60938L443.60938 406.17188L443.60938 409.5L442.48438 409.5L442.48438 400.96875L443.9375 400.96875ZM456.23438 409.5Q456.14062 409.3125 456.07812 408.82812Q455.32812 409.625 454.28125 409.625Q453.34375 409.625 452.73438 409.09375Q452.14062 408.5625 452.14062 407.73438Q452.14062 406.75 452.89062 406.20312Q453.64062 405.65625 455.01562 405.65625L456.0625 405.65625L456.0625 405.15625Q456.0625 404.59375 455.71875 404.26562Q455.39062 403.92188 454.71875 403.92188Q454.14062 403.92188 453.75 404.21875Q453.35938 404.5 453.35938 404.92188L452.26562 404.92188Q452.26562 404.4375 452.59375 404.0Q452.9375 403.5625 453.51562 403.3125Q454.09375 403.04688 454.78125 403.04688Q455.89062 403.04688 456.5 403.59375Q457.125 404.14062 457.15625 405.09375L457.15625 408.01562Q457.15625 408.89062 457.375 409.40625L457.375 409.5L456.23438 409.5ZM454.4375 408.67188Q454.95312 408.67188 455.40625 408.40625Q455.85938 408.14062 456.0625 407.71875L456.0625 406.42188L455.21875 406.42188Q453.21875 406.42188 453.21875 407.59375Q453.21875 408.09375 453.5625 408.39062Q453.90625 408.67188 454.4375 408.67188ZM460.79688 401.625L460.79688 403.15625L461.96875 403.15625L461.96875 404.0L460.79688 404.0L460.79688 407.92188Q460.79688 408.3125 460.95312 408.5Q461.10938 408.6875 461.48438 408.6875Q461.67188 408.6875 462.0 408.625L462.0 409.5Q461.57812 409.625 461.17188 409.625Q460.45312 409.625 460.07812 409.1875Q459.70312 408.73438 459.70312 407.92188L459.70312 404.0L458.54688 404.0L458.54688 403.15625L459.70312 403.15625L459.70312 401.625L460.79688 401.625ZM464.40625 403.92188Q465.125 403.04688 466.28125 403.04688Q468.29688 403.04688 468.3125 405.3125L468.3125 409.5L467.21875 409.5L467.21875 405.29688Q467.21875 404.625 466.90625 404.29688Q466.60938 403.96875 465.95312 403.96875Q465.42188 403.96875 465.01562 404.25Q464.625 404.53125 464.40625 404.98438L464.40625 409.5L463.32812 409.5L463.32812 400.5L464.40625 400.5L464.40625 403.92188ZM472.95312 409.625Q471.65625 409.625 470.84375 408.78125Q470.04688 407.92188 470.04688 406.5L470.04688 406.3125Q470.04688 405.35938 470.40625 404.625Q470.76562 403.875 471.40625 403.46875Q472.0625 403.04688 472.8125 403.04688Q474.04688 403.04688 474.73438 403.85938Q475.42188 404.67188 475.42188 406.1875L475.42188 406.64062L471.125 406.64062Q471.15625 407.57812 471.67188 408.15625Q472.20312 408.73438 473.01562 408.73438Q473.57812 408.73438 473.96875 408.5Q474.375 408.26562 474.6875 407.875L475.34375 408.39062Q474.54688 409.625 472.95312 409.625ZM472.8125 403.9375Q472.15625 403.9375 471.70312 404.42188Q471.26562 404.89062 471.17188 405.75L474.34375 405.75L474.34375 405.67188Q474.29688 404.84375 473.89062 404.39062Q473.5 403.9375 472.8125 403.9375ZM477.34375 403.15625L477.375 403.85938Q478.0625 403.04688 479.25 403.04688Q480.57812 403.04688 481.0625 404.0625Q481.375 403.60938 481.875 403.32812Q482.39062 403.04688 483.07812 403.04688Q485.17188 403.04688 485.20312 405.25L485.20312 409.5L484.125 409.5L484.125 405.3125Q484.125 404.64062 483.8125 404.3125Q483.5 403.96875 482.76562 403.96875Q482.15625 403.96875 481.75 404.32812Q481.35938 404.6875 481.29688 405.29688L481.29688 409.5L480.21875 409.5L480.21875 405.34375Q480.21875 403.96875 478.85938 403.96875Q477.79688 403.96875 477.40625 404.875L477.40625 409.5L476.3125 409.5L476.3125 403.15625L477.34375 403.15625ZM491.23438 409.5Q491.14062 409.3125 491.07812 408.82812Q490.32812 409.625 489.28125 409.625Q488.34375 409.625 487.73438 409.09375Q487.14062 408.5625 487.14062 407.73438Q487.14062 406.75 487.89062 406.20312Q488.64062 405.65625 490.01562 405.65625L491.0625 405.65625L491.0625 405.15625Q491.0625 404.59375 490.71875 404.26562Q490.39062 403.92188 489.71875 403.92188Q489.14062 403.92188 488.75 404.21875Q488.35938 404.5 488.35938 404.92188L487.26562 404.92188Q487.26562 404.4375 487.59375 404.0Q487.9375 403.5625 488.51562 403.3125Q489.09375 403.04688 489.78125 403.04688Q490.89062 403.04688 491.5 403.59375Q492.125 404.14062 492.15625 405.09375L492.15625 408.01562Q492.15625 408.89062 492.375 409.40625L492.375 409.5L491.23438 409.5ZM489.4375 408.67188Q489.95312 408.67188 490.40625 408.40625Q490.85938 408.14062 491.0625 407.71875L491.0625 406.42188L490.21875 406.42188Q488.21875 406.42188 488.21875 407.59375Q488.21875 408.09375 488.5625 408.39062Q488.90625 408.67188 489.4375 408.67188ZM495.79688 401.625L495.79688 403.15625L496.96875 403.15625L496.96875 404.0L495.79688 404.0L495.79688 407.92188Q495.79688 408.3125 495.95312 408.5Q496.10938 408.6875 496.48438 408.6875Q496.67188 408.6875 497.0 408.625L497.0 409.5Q496.57812 409.625 496.17188 409.625Q495.45312 409.625 495.07812 409.1875Q494.70312 408.73438 494.70312 407.92188L494.70312 404.0L493.54688 404.0L493.54688 403.15625L494.70312 403.15625L494.70312 401.625L495.79688 401.625ZM499.5 409.5L498.42188 409.5L498.42188 403.15625L499.5 403.15625L499.5 409.5ZM498.32812 401.48438Q498.32812 401.21875 498.48438 401.03125Q498.65625 400.84375 498.96875 400.84375Q499.28125 400.84375 499.4375 401.03125Q499.60938 401.21875 499.60938 401.48438Q499.60938 401.73438 499.4375 401.92188Q499.28125 402.09375 498.96875 402.09375Q498.65625 402.09375 498.48438 401.92188Q498.32812 401.73438 498.32812 401.48438ZM503.85938 408.73438Q504.4375 408.73438 504.875 408.39062Q505.3125 408.03125 505.35938 407.5L506.39062 407.5Q506.35938 408.04688 506.0 408.54688Q505.65625 409.03125 505.07812 409.32812Q504.51562 409.625 503.85938 409.625Q502.5625 409.625 501.79688 408.76562Q501.04688 407.89062 501.04688 406.39062L501.04688 406.20312Q501.04688 405.28125 501.375 404.5625Q501.71875 403.84375 502.34375 403.45312Q502.98438 403.04688 503.85938 403.04688Q504.92188 403.04688 505.625 403.6875Q506.34375 404.3125 506.39062 405.34375L505.35938 405.34375Q505.3125 404.71875 504.89062 404.32812Q504.46875 403.9375 503.85938 403.9375Q503.03125 403.9375 502.57812 404.53125Q502.125 405.125 502.125 406.25L502.125 406.45312Q502.125 407.54688 502.57812 408.14062Q503.03125 408.73438 503.85938 408.73438ZM511.01562 407.8125Q511.01562 407.375 510.67188 407.14062Q510.34375 406.89062 509.51562 406.71875Q508.70312 406.54688 508.21875 406.29688Q507.73438 406.04688 507.5 405.71875Q507.28125 405.375 507.28125 404.90625Q507.28125 404.125 507.9375 403.59375Q508.59375 403.04688 509.625 403.04688Q510.70312 403.04688 511.35938 403.60938Q512.03125 404.15625 512.03125 405.01562L510.95312 405.01562Q510.95312 404.57812 510.5625 404.26562Q510.1875 403.9375 509.625 403.9375Q509.03125 403.9375 508.6875 404.20312Q508.35938 404.45312 508.35938 404.85938Q508.35938 405.25 508.67188 405.45312Q508.98438 405.65625 509.79688 405.84375Q510.60938 406.01562 511.10938 406.26562Q511.60938 406.51562 511.84375 406.875Q512.09375 407.23438 512.09375 407.73438Q512.09375 408.59375 511.40625 409.10938Q510.73438 409.625 509.65625 409.625Q508.89062 409.625 508.29688 409.35938Q507.71875 409.07812 507.39062 408.59375Q507.0625 408.10938 507.0625 407.54688L508.14062 407.54688Q508.17188 408.09375 508.57812 408.42188Q508.98438 408.73438 509.65625 408.73438Q510.26562 408.73438 510.64062 408.48438Q511.01562 408.23438 511.01562 407.8125Z" fill-rule="nonzero"/><path stroke="#cccccc" stroke-width="1.0" stroke-linecap="butt" d="M307.0 258.0L307.0 396.0" fill-rule="nonzero"/><path fill="#000000" d="M234.04688 466.51562Q234.04688 467.76562 233.625 468.70312Q233.20312 469.625 232.42188 470.125Q231.65625 470.625 230.625 470.625Q229.625 470.625 228.84375 470.125Q228.0625 469.625 227.625 468.71875Q227.20312 467.79688 227.1875 466.57812L227.1875 465.96875Q227.1875 464.73438 227.60938 463.79688Q228.04688 462.85938 228.82812 462.35938Q229.60938 461.84375 230.625 461.84375Q231.64062 461.84375 232.42188 462.34375Q233.20312 462.84375 233.625 463.78125Q234.04688 464.71875 234.04688 465.96875L234.04688 466.51562ZM232.9375 465.95312Q232.9375 464.4375 232.32812 463.625Q231.71875 462.8125 230.625 462.8125Q229.54688 462.8125 228.9375 463.625Q228.32812 464.4375 228.3125 465.875L228.3125 466.51562Q228.3125 467.98438 228.92188 468.82812Q229.54688 469.65625 230.625 469.65625Q231.71875 469.65625 232.3125 468.875Q232.92188 468.07812 232.9375 466.59375L232.9375 465.95312ZM240.6875 467.40625Q240.6875 468.85938 240.01562 469.75Q239.35938 470.625 238.23438 470.625Q237.03125 470.625 236.375 469.76562L236.3125 470.5L235.32812 470.5L235.32812 461.5L236.40625 461.5L236.40625 464.85938Q237.0625 464.04688 238.21875 464.04688Q239.375 464.04688 240.03125 464.92188Q240.6875 465.78125 240.6875 467.3125L240.6875 467.40625ZM239.60938 467.28125Q239.60938 466.17188 239.17188 465.57812Q238.75 464.96875 237.95312 464.96875Q236.875 464.96875 236.40625 465.95312L236.40625 468.70312Q236.90625 469.70312 237.95312 469.70312Q238.73438 469.70312 239.17188 469.09375Q239.60938 468.48438 239.60938 467.28125ZM243.4375 464.15625L243.4375 471.23438Q243.4375 473.0625 241.78125 473.0625Q241.42188 473.0625 241.125 472.95312L241.125 472.09375Q241.3125 472.14062 241.60938 472.14062Q241.96875 472.14062 242.15625 471.9375Q242.35938 471.75 242.35938 471.25L242.35938 464.15625L243.4375 464.15625ZM242.25 462.48438Q242.25 462.21875 242.40625 462.03125Q242.5625 461.84375 242.875 461.84375Q243.1875 461.84375 243.34375 462.03125Q243.51562 462.21875 243.51562 462.48438Q243.51562 462.73438 243.34375 462.92188Q243.1875 463.09375 242.875 463.09375Q242.5625 463.09375 242.40625 462.92188Q242.25 462.73438 242.25 462.48438ZM247.95312 470.625Q246.65625 470.625 245.84375 469.78125Q245.04688 468.92188 245.04688 467.5L245.04688 467.3125Q245.04688 466.35938 245.40625 465.625Q245.76562 464.875 246.40625 464.46875Q247.0625 464.04688 247.8125 464.04688Q249.04688 464.04688 249.73438 464.85938Q250.42188 465.67188 250.42188 467.1875L250.42188 467.64062L246.125 467.64062Q246.15625 468.57812 246.67188 469.15625Q247.20312 469.73438 248.01562 469.73438Q248.57812 469.73438 248.96875 469.5Q249.375 469.26562 249.6875 468.875L250.34375 469.39062Q249.54688 470.625 247.95312 470.625ZM247.8125 464.9375Q247.15625 464.9375 246.70312 465.42188Q246.26562 465.89062 246.17188 466.75L249.34375 466.75L249.34375 466.67188Q249.29688 465.84375 248.89062 465.39062Q248.5 464.9375 247.8125 464.9375ZM253.85938 469.73438Q254.4375 469.73438 254.875 469.39062Q255.3125 469.03125 255.35938 468.5L256.39062 468.5Q256.35938 469.04688 256.0 469.54688Q255.65625 470.03125 255.07812 470.32812Q254.51562 470.625 253.85938 470.625Q252.5625 470.625 251.79688 469.76562Q251.04688 468.89062 251.04688 467.39062L251.04688 467.20312Q251.04688 466.28125 251.375 465.5625Q251.71875 464.84375 252.34375 464.45312Q252.98438 464.04688 253.85938 464.04688Q254.92188 464.04688 255.625 464.6875Q256.34375 465.3125 256.39062 466.34375L255.35938 466.34375Q255.3125 465.71875 254.89062 465.32812Q254.46875 464.9375 253.85938 464.9375Q253.03125 464.9375 252.57812 465.53125Q252.125 466.125 252.125 467.25L252.125 467.45312Q252.125 468.54688 252.57812 469.14062Q253.03125 469.73438 253.85938 469.73438ZM258.79688 462.625L258.79688 464.15625L259.96875 464.15625L259.96875 465.0L258.79688 465.0L258.79688 468.92188Q258.79688 469.3125 258.95312 469.5Q259.10938 469.6875 259.48438 469.6875Q259.67188 469.6875 260.0 469.625L260.0 470.5Q259.57812 470.625 259.17188 470.625Q258.45312 470.625 258.07812 470.1875Q257.70312 469.73438 257.70312 468.92188L257.70312 465.0L256.54688 465.0L256.54688 464.15625L257.70312 464.15625L257.70312 462.625L258.79688 462.625ZM263.57812 467.3125L260.71875 467.3125L260.71875 466.4375L263.57812 466.4375L263.57812 467.3125ZM271.04688 466.51562Q271.04688 467.76562 270.625 468.70312Q270.20312 469.625 269.42188 470.125Q268.65625 470.625 267.625 470.625Q266.625 470.625 265.84375 470.125Q265.0625 469.625 264.625 468.71875Q264.20312 467.79688 264.1875 466.57812L264.1875 465.96875Q264.1875 464.73438 264.60938 463.79688Q265.04688 462.85938 265.82812 462.35938Q266.60938 461.84375 267.625 461.84375Q268.64062 461.84375 269.42188 462.34375Q270.20312 462.84375 270.625 463.78125Q271.04688 464.71875 271.04688 465.96875L271.04688 466.51562ZM269.9375 465.95312Q269.9375 464.4375 269.32812 463.625Q268.71875 462.8125 267.625 462.8125Q266.54688 462.8125 265.9375 463.625Q265.32812 464.4375 265.3125 465.875L265.3125 466.51562Q265.3125 467.98438 265.92188 468.82812Q266.54688 469.65625 267.625 469.65625Q268.71875 469.65625 269.3125 468.875Q269.92188 468.07812 269.9375 466.59375L269.9375 465.95312ZM275.39062 465.125Q275.14062 465.09375 274.85938 465.09375Q273.78125 465.09375 273.40625 466.0L273.40625 470.5L272.32812 470.5L272.32812 464.15625L273.375 464.15625L273.39062 464.89062Q273.92188 464.04688 274.90625 464.04688Q275.21875 464.04688 275.39062 464.125L275.39062 465.125ZM277.5 470.5L276.42188 470.5L276.42188 464.15625L277.5 464.15625L277.5 470.5ZM276.32812 462.48438Q276.32812 462.21875 276.48438 462.03125Q276.65625 461.84375 276.96875 461.84375Q277.28125 461.84375 277.4375 462.03125Q277.60938 462.21875 277.60938 462.48438Q277.60938 462.73438 277.4375 462.92188Q277.28125 463.09375 276.96875 463.09375Q276.65625 463.09375 276.48438 462.92188Q276.32812 462.73438 276.32812 462.48438ZM281.95312 470.625Q280.65625 470.625 279.84375 469.78125Q279.04688 468.92188 279.04688 467.5L279.04688 467.3125Q279.04688 466.35938 279.40625 465.625Q279.76562 464.875 280.40625 464.46875Q281.0625 464.04688 281.8125 464.04688Q283.04688 464.04688 283.73438 464.85938Q284.42188 465.67188 284.42188 467.1875L284.42188 467.64062L280.125 467.64062Q280.15625 468.57812 280.67188 469.15625Q281.20312 469.73438 282.01562 469.73438Q282.57812 469.73438 282.96875 469.5Q283.375 469.26562 283.6875 468.875L284.34375 469.39062Q283.54688 470.625 281.95312 470.625ZM281.8125 464.9375Q281.15625 464.9375 280.70312 465.42188Q280.26562 465.89062 280.17188 466.75L283.34375 466.75L283.34375 466.67188Q283.29688 465.84375 282.89062 465.39062Q282.5 464.9375 281.8125 464.9375ZM286.34375 464.15625L286.375 464.95312Q287.10938 464.04688 288.28125 464.04688Q290.29688 464.04688 290.3125 466.3125L290.3125 470.5L289.21875 470.5L289.21875 466.29688Q289.21875 465.625 288.90625 465.29688Q288.60938 464.96875 287.95312 464.96875Q287.42188 464.96875 287.01562 465.25Q286.625 465.53125 286.40625 465.98438L286.40625 470.5L285.32812 470.5L285.32812 464.15625L286.34375 464.15625ZM293.79688 462.625L293.79688 464.15625L294.96875 464.15625L294.96875 465.0L293.79688 465.0L293.79688 468.92188Q293.79688 469.3125 293.95312 469.5Q294.10938 469.6875 294.48438 469.6875Q294.67188 469.6875 295.0 469.625L295.0 470.5Q294.57812 470.625 294.17188 470.625Q293.45312 470.625 293.07812 470.1875Q292.70312 469.73438 292.70312 468.92188L292.70312 465.0L291.54688 465.0L291.54688 464.15625L292.70312 464.15625L292.70312 462.625L293.79688 462.625ZM298.95312 470.625Q297.65625 470.625 296.84375 469.78125Q296.04688 468.92188 296.04688 467.5L296.04688 467.3125Q296.04688 466.35938 296.40625 465.625Q296.76562 464.875 297.40625 464.46875Q298.0625 464.04688 298.8125 464.04688Q300.04688 464.04688 300.73438 464.85938Q301.42188 465.67188 301.42188 467.1875L301.42188 467.64062L297.125 467.64062Q297.15625 468.57812 297.67188 469.15625Q298.20312 469.73438 299.01562 469.73438Q299.57812 469.73438 299.96875 469.5Q300.375 469.26562 300.6875 468.875L301.34375 469.39062Q300.54688 470.625 298.95312 470.625ZM298.8125 464.9375Q298.15625 464.9375 297.70312 465.42188Q297.26562 465.89062 297.17188 466.75L300.34375 466.75L300.34375 466.67188Q300.29688 465.84375 299.89062 465.39062Q299.5 464.9375 298.8125 464.9375ZM302.0625 467.28125Q302.0625 465.8125 302.75 464.9375Q303.4375 464.04688 304.5625 464.04688Q305.67188 464.04688 306.32812 464.79688L306.32812 461.5L307.40625 461.5L307.40625 470.5L306.40625 470.5L306.35938 469.8125Q305.70312 470.625 304.54688 470.625Q303.45312 470.625 302.75 469.71875Q302.0625 468.8125 302.0625 467.35938L302.0625 467.28125ZM303.14062 467.40625Q303.14062 468.48438 303.57812 469.09375Q304.03125 469.70312 304.8125 469.70312Q305.84375 469.70312 306.32812 468.76562L306.32812 465.85938Q305.84375 464.96875 304.82812 464.96875Q304.03125 464.96875 303.57812 465.57812Q303.14062 466.1875 303.14062 467.40625ZM313.60938 467.15625L313.60938 470.5L312.48438 470.5L312.48438 461.96875L315.64062 461.96875Q317.03125 461.96875 317.82812 462.6875Q318.625 463.39062 318.625 464.57812Q318.625 465.8125 317.84375 466.48438Q317.07812 467.15625 315.625 467.15625L313.60938 467.15625ZM313.60938 466.23438L315.64062 466.23438Q316.54688 466.23438 317.01562 465.8125Q317.5 465.39062 317.5 464.59375Q317.5 463.82812 317.01562 463.375Q316.54688 462.90625 315.70312 462.89062L313.60938 462.89062L313.60938 466.23438ZM323.39062 465.125Q323.14062 465.09375 322.85938 465.09375Q321.78125 465.09375 321.40625 466.0L321.40625 470.5L320.32812 470.5L320.32812 464.15625L321.375 464.15625L321.39062 464.89062Q321.92188 464.04688 322.90625 464.04688Q323.21875 464.04688 323.39062 464.125L323.39062 465.125ZM324.03125 467.26562Q324.03125 466.34375 324.39062 465.59375Q324.76562 464.84375 325.42188 464.45312Q326.07812 464.04688 326.90625 464.04688Q328.20312 464.04688 329.0 464.9375Q329.8125 465.82812 329.8125 467.32812L329.8125 467.40625Q329.8125 468.32812 329.45312 469.0625Q329.09375 469.79688 328.4375 470.21875Q327.78125 470.625 326.92188 470.625Q325.64062 470.625 324.82812 469.73438Q324.03125 468.82812 324.03125 467.34375L324.03125 467.26562ZM325.125 467.40625Q325.125 468.45312 325.60938 469.09375Q326.10938 469.73438 326.92188 469.73438Q327.75 469.73438 328.23438 469.09375Q328.71875 468.4375 328.71875 467.26562Q328.71875 466.23438 328.21875 465.59375Q327.73438 464.9375 326.90625 464.9375Q326.10938 464.9375 325.60938 465.57812Q325.125 466.20312 325.125 467.40625ZM331.0625 467.28125Q331.0625 465.79688 331.75 464.92188Q332.4375 464.04688 333.5625 464.04688Q334.71875 464.04688 335.375 464.85938L335.42188 464.15625L336.42188 464.15625L336.42188 470.34375Q336.42188 471.57812 335.6875 472.28125Q334.95312 473.0 333.73438 473.0Q333.04688 473.0 332.39062 472.70312Q331.73438 472.40625 331.39062 471.90625L331.95312 471.25Q332.64062 472.10938 333.65625 472.10938Q334.4375 472.10938 334.875 471.65625Q335.32812 471.21875 335.32812 470.40625L335.32812 469.85938Q334.67188 470.625 333.54688 470.625Q332.4375 470.625 331.75 469.73438Q331.0625 468.82812 331.0625 467.28125ZM332.15625 467.40625Q332.15625 468.46875 332.59375 469.09375Q333.03125 469.70312 333.82812 469.70312Q334.84375 469.70312 335.32812 468.76562L335.32812 465.875Q334.82812 464.96875 333.82812 464.96875Q333.04688 464.96875 332.59375 465.57812Q332.15625 466.1875 332.15625 467.40625ZM341.39062 465.125Q341.14062 465.09375 340.85938 465.09375Q339.78125 465.09375 339.40625 466.0L339.40625 470.5L338.32812 470.5L338.32812 464.15625L339.375 464.15625L339.39062 464.89062Q339.92188 464.04688 340.90625 464.04688Q341.21875 464.04688 341.39062 464.125L341.39062 465.125ZM346.23438 470.5Q346.14062 470.3125 346.07812 469.82812Q345.32812 470.625 344.28125 470.625Q343.34375 470.625 342.73438 470.09375Q342.14062 469.5625 342.14062 468.73438Q342.14062 467.75 342.89062 467.20312Q343.64062 466.65625 345.01562 466.65625L346.0625 466.65625L346.0625 466.15625Q346.0625 465.59375 345.71875 465.26562Q345.39062 464.92188 344.71875 464.92188Q344.14062 464.92188 343.75 465.21875Q343.35938 465.5 343.35938 465.92188L342.26562 465.92188Q342.26562 465.4375 342.59375 465.0Q342.9375 464.5625 343.51562 464.3125Q344.09375 464.04688 344.78125 464.04688Q345.89062 464.04688 346.5 464.59375Q347.125 465.14062 347.15625 466.09375L347.15625 469.01562Q347.15625 469.89062 347.375 470.40625L347.375 470.5L346.23438 470.5ZM344.4375 469.67188Q344.95312 469.67188 345.40625 469.40625Q345.85938 469.14062 346.0625 468.71875L346.0625 467.42188L345.21875 467.42188Q343.21875 467.42188 343.21875 468.59375Q343.21875 469.09375 343.5625 469.39062Q343.90625 469.67188 344.4375 469.67188ZM350.34375 464.15625L350.375 464.85938Q351.0625 464.04688 352.25 464.04688Q353.57812 464.04688 354.0625 465.0625Q354.375 464.60938 354.875 464.32812Q355.39062 464.04688 356.07812 464.04688Q358.17188 464.04688 358.20312 466.25L358.20312 470.5L357.125 470.5L357.125 466.3125Q357.125 465.64062 356.8125 465.3125Q356.5 464.96875 355.76562 464.96875Q355.15625 464.96875 354.75 465.32812Q354.35938 465.6875 354.29688 466.29688L354.29688 470.5L353.21875 470.5L353.21875 466.34375Q353.21875 464.96875 351.85938 464.96875Q350.79688 464.96875 350.40625 465.875L350.40625 470.5L349.3125 470.5L349.3125 464.15625L350.34375 464.15625ZM361.34375 464.15625L361.375 464.85938Q362.0625 464.04688 363.25 464.04688Q364.57812 464.04688 365.0625 465.0625Q365.375 464.60938 365.875 464.32812Q366.39062 464.04688 367.07812 464.04688Q369.17188 464.04688 369.20312 466.25L369.20312 470.5L368.125 470.5L368.125 466.3125Q368.125 465.64062 367.8125 465.3125Q367.5 464.96875 366.76562 464.96875Q366.15625 464.96875 365.75 465.32812Q365.35938 465.6875 365.29688 466.29688L365.29688 470.5L364.21875 470.5L364.21875 466.34375Q364.21875 464.96875 362.85938 464.96875Q361.79688 464.96875 361.40625 465.875L361.40625 470.5L360.3125 470.5L360.3125 464.15625L361.34375 464.15625ZM372.5 470.5L371.42188 470.5L371.42188 464.15625L372.5 464.15625L372.5 470.5ZM371.32812 462.48438Q371.32812 462.21875 371.48438 462.03125Q371.65625 461.84375 371.96875 461.84375Q372.28125 461.84375 372.4375 462.03125Q372.60938 462.21875 372.60938 462.48438Q372.60938 462.73438 372.4375 462.92188Q372.28125 463.09375 371.96875 463.09375Q371.65625 463.09375 371.48438 462.92188Q371.32812 462.73438 371.32812 462.48438ZM375.34375 464.15625L375.375 464.95312Q376.10938 464.04688 377.28125 464.04688Q379.29688 464.04688 379.3125 466.3125L379.3125 470.5L378.21875 470.5L378.21875 466.29688Q378.21875 465.625 377.90625 465.29688Q377.60938 464.96875 376.95312 464.96875Q376.42188 464.96875 376.01562 465.25Q375.625 465.53125 375.40625 465.98438L375.40625 470.5L374.32812 470.5L374.32812 464.15625L375.34375 464.15625ZM381.0625 467.28125Q381.0625 465.79688 381.75 464.92188Q382.4375 464.04688 383.5625 464.04688Q384.71875 464.04688 385.375 464.85938L385.42188 464.15625L386.42188 464.15625L386.42188 470.34375Q386.42188 471.57812 385.6875 472.28125Q384.95312 473.0 383.73438 473.0Q383.04688 473.0 382.39062 472.70312Q381.73438 472.40625 381.39062 471.90625L381.95312 471.25Q382.64062 472.10938 383.65625 472.10938Q384.4375 472.10938 384.875 471.65625Q385.32812 471.21875 385.32812 470.40625L385.32812 469.85938Q384.67188 470.625 383.54688 470.625Q382.4375 470.625 381.75 469.73438Q381.0625 468.82812 381.0625 467.28125ZM382.15625 467.40625Q382.15625 468.46875 382.59375 469.09375Q383.03125 469.70312 383.82812 469.70312Q384.84375 469.70312 385.32812 468.76562L385.32812 465.875Q384.82812 464.96875 383.82812 464.96875Q383.04688 464.96875 382.59375 465.57812Q382.15625 466.1875 382.15625 467.40625Z" fill-rule="nonzero"/><path stroke="#cccccc" stroke-width="1.0" stroke-linecap="butt" d="M307.0 258.0L210.0 355.0" fill-rule="nonzero"/><path fill="#000000" d="M135.70312 407.26562L132.125 407.26562L131.32812 409.5L130.17188 409.5L133.42188 400.96875L134.40625 400.96875L137.67188 409.5L136.51562 409.5L135.70312 407.26562ZM132.46875 406.34375L135.375 406.34375L133.92188 402.35938L132.46875 406.34375ZM140.0 409.5L138.92188 409.5L138.92188 400.5L140.0 400.5L140.0 409.5ZM141.5625 406.28125Q141.5625 404.79688 142.25 403.92188Q142.9375 403.04688 144.0625 403.04688Q145.21875 403.04688 145.875 403.85938L145.92188 403.15625L146.92188 403.15625L146.92188 409.34375Q146.92188 410.57812 146.1875 411.28125Q145.45312 412.0 144.23438 412.0Q143.54688 412.0 142.89062 411.70312Q142.23438 411.40625 141.89062 410.90625L142.45312 410.25Q143.14062 411.10938 144.15625 411.10938Q144.9375 411.10938 145.375 410.65625Q145.82812 410.21875 145.82812 409.40625L145.82812 408.85938Q145.17188 409.625 144.04688 409.625Q142.9375 409.625 142.25 408.73438Q141.5625 407.82812 141.5625 406.28125ZM142.65625 406.40625Q142.65625 407.46875 143.09375 408.09375Q143.53125 408.70312 144.32812 408.70312Q145.34375 408.70312 145.82812 407.76562L145.82812 404.875Q145.32812 403.96875 144.32812 403.96875Q143.54688 403.96875 143.09375 404.57812Q142.65625 405.1875 142.65625 406.40625ZM148.53125 406.26562Q148.53125 405.34375 148.89062 404.59375Q149.26562 403.84375 149.92188 403.45312Q150.57812 403.04688 151.40625 403.04688Q152.70312 403.04688 153.5 403.9375Q154.3125 404.82812 154.3125 406.32812L154.3125 406.40625Q154.3125 407.32812 153.95312 408.0625Q153.59375 408.79688 152.9375 409.21875Q152.28125 409.625 151.42188 409.625Q150.14062 409.625 149.32812 408.73438Q148.53125 407.82812 148.53125 406.34375L148.53125 406.26562ZM149.625 406.40625Q149.625 407.45312 150.10938 408.09375Q150.60938 408.73438 151.42188 408.73438Q152.25 408.73438 152.73438 408.09375Q153.21875 407.4375 153.21875 406.26562Q153.21875 405.23438 152.71875 404.59375Q152.23438 403.9375 151.40625 403.9375Q150.60938 403.9375 150.10938 404.57812Q149.625 405.20312 149.625 406.40625ZM158.89062 404.125Q158.64062 404.09375 158.35938 404.09375Q157.28125 404.09375 156.90625 405.0L156.90625 409.5L155.82812 409.5L155.82812 403.15625L156.875 403.15625L156.89062 403.89062Q157.42188 403.04688 158.40625 403.04688Q158.71875 403.04688 158.89062 403.125L158.89062 404.125ZM161.0 409.5L159.92188 409.5L159.92188 403.15625L161.0 403.15625L161.0 409.5ZM159.82812 401.48438Q159.82812 401.21875 159.98438 401.03125Q160.15625 400.84375 160.46875 400.84375Q160.78125 400.84375 160.9375 401.03125Q161.10938 401.21875 161.10938 401.48438Q161.10938 401.73438 160.9375 401.92188Q160.78125 402.09375 160.46875 402.09375Q160.15625 402.09375 159.98438 401.92188Q159.82812 401.73438 159.82812 401.48438ZM164.29688 401.625L164.29688 403.15625L165.46875 403.15625L165.46875 404.0L164.29688 404.0L164.29688 407.92188Q164.29688 408.3125 164.45312 408.5Q164.60938 408.6875 164.98438 408.6875Q165.17188 408.6875 165.5 408.625L165.5 409.5Q165.07812 409.625 164.67188 409.625Q163.95312 409.625 163.57812 409.1875Q163.20312 408.73438 163.20312 407.92188L163.20312 404.0L162.04688 404.0L162.04688 403.15625L163.20312 403.15625L163.20312 401.625L164.29688 401.625ZM167.90625 403.92188Q168.625 403.04688 169.78125 403.04688Q171.79688 403.04688 171.8125 405.3125L171.8125 409.5L170.71875 409.5L170.71875 405.29688Q170.71875 404.625 170.40625 404.29688Q170.10938 403.96875 169.45312 403.96875Q168.92188 403.96875 168.51562 404.25Q168.125 404.53125 167.90625 404.98438L167.90625 409.5L166.82812 409.5L166.82812 400.5L167.90625 400.5L167.90625 403.92188ZM174.84375 403.15625L174.875 403.85938Q175.5625 403.04688 176.75 403.04688Q178.07812 403.04688 178.5625 404.0625Q178.875 403.60938 179.375 403.32812Q179.89062 403.04688 180.57812 403.04688Q182.67188 403.04688 182.70312 405.25L182.70312 409.5L181.625 409.5L181.625 405.3125Q181.625 404.64062 181.3125 404.3125Q181.0 403.96875 180.26562 403.96875Q179.65625 403.96875 179.25 404.32812Q178.85938 404.6875 178.79688 405.29688L178.79688 409.5L177.71875 409.5L177.71875 405.34375Q177.71875 403.96875 176.35938 403.96875Q175.29688 403.96875 174.90625 404.875L174.90625 409.5L173.8125 409.5L173.8125 403.15625L174.84375 403.15625ZM188.51562 407.8125Q188.51562 407.375 188.17188 407.14062Q187.84375 406.89062 187.01562 406.71875Q186.20312 406.54688 185.71875 406.29688Q185.23438 406.04688 185.0 405.71875Q184.78125 405.375 184.78125 404.90625Q184.78125 404.125 185.4375 403.59375Q186.09375 403.04688 187.125 403.04688Q188.20312 403.04688 188.85938 403.60938Q189.53125 404.15625 189.53125 405.01562L188.45312 405.01562Q188.45312 404.57812 188.0625 404.26562Q187.6875 403.9375 187.125 403.9375Q186.53125 403.9375 186.1875 404.20312Q185.85938 404.45312 185.85938 404.85938Q185.85938 405.25 186.17188 405.45312Q186.48438 405.65625 187.29688 405.84375Q188.10938 406.01562 188.60938 406.26562Q189.10938 406.51562 189.34375 406.875Q189.59375 407.23438 189.59375 407.73438Q189.59375 408.59375 188.90625 409.10938Q188.23438 409.625 187.15625 409.625Q186.39062 409.625 185.79688 409.35938Q185.21875 409.07812 184.89062 408.59375Q184.5625 408.10938 184.5625 407.54688L185.64062 407.54688Q185.67188 408.09375 186.07812 408.42188Q186.48438 408.73438 187.15625 408.73438Q187.76562 408.73438 188.14062 408.48438Q188.51562 408.23438 188.51562 407.8125Z" fill-rule="nonzero"/><path stroke="#cccccc" stroke-width="1.0" stroke-linecap="butt" d="M307.0 258.0L169.0 258.0" fill-rule="nonzero"/><path fill="#000000" d="M57.984375 262.5L57.984375 253.96875L60.40625 253.96875Q61.515625 253.96875 62.359375 254.46875Q63.21875 254.95312 63.6875 255.85938Q64.15625 256.76562 64.15625 257.95312L64.15625 258.48438Q64.15625 259.70312 63.6875 260.60938Q63.234375 261.51562 62.359375 262.0Q61.5 262.48438 60.359375 262.5L57.984375 262.5ZM59.109375 254.89062L59.109375 261.57812L60.296875 261.57812Q61.59375 261.57812 62.3125 260.78125Q63.046875 259.96875 63.046875 258.46875L63.046875 257.96875Q63.046875 256.51562 62.359375 255.71875Q61.6875 254.90625 60.421875 254.89062L59.109375 254.89062ZM69.734375 262.5Q69.640625 262.3125 69.578125 261.82812Q68.828125 262.625 67.78125 262.625Q66.84375 262.625 66.234375 262.09375Q65.640625 261.5625 65.640625 260.73438Q65.640625 259.75 66.390625 259.20312Q67.140625 258.65625 68.515625 258.65625L69.5625 258.65625L69.5625 258.15625Q69.5625 257.59375 69.21875 257.26562Q68.890625 256.92188 68.21875 256.92188Q67.640625 256.92188 67.25 257.21875Q66.859375 257.5 66.859375 257.92188L65.765625 257.92188Q65.765625 257.4375 66.09375 257.0Q66.4375 256.5625 67.015625 256.3125Q67.59375 256.04688 68.28125 256.04688Q69.390625 256.04688 70.0 256.59375Q70.625 257.14062 70.65625 258.09375L70.65625 261.01562Q70.65625 261.89062 70.875 262.40625L70.875 262.5L69.734375 262.5ZM67.9375 261.67188Q68.453125 261.67188 68.90625 261.40625Q69.359375 261.14062 69.5625 260.71875L69.5625 259.42188L68.71875 259.42188Q66.71875 259.42188 66.71875 260.59375Q66.71875 261.09375 67.0625 261.39062Q67.40625 261.67188 67.9375 261.67188ZM74.296875 254.625L74.296875 256.15625L75.46875 256.15625L75.46875 257.0L74.296875 257.0L74.296875 260.92188Q74.296875 261.3125 74.453125 261.5Q74.609375 261.6875 74.984375 261.6875Q75.171875 261.6875 75.5 261.625L75.5 262.5Q75.078125 262.625 74.671875 262.625Q73.953125 262.625 73.578125 262.1875Q73.203125 261.73438 73.203125 260.92188L73.203125 257.0L72.046875 257.0L72.046875 256.15625L73.203125 256.15625L73.203125 254.625L74.296875 254.625ZM80.734375 262.5Q80.640625 262.3125 80.578125 261.82812Q79.828125 262.625 78.78125 262.625Q77.84375 262.625 77.234375 262.09375Q76.640625 261.5625 76.640625 260.73438Q76.640625 259.75 77.390625 259.20312Q78.140625 258.65625 79.515625 258.65625L80.5625 258.65625L80.5625 258.15625Q80.5625 257.59375 80.21875 257.26562Q79.890625 256.92188 79.21875 256.92188Q78.640625 256.92188 78.25 257.21875Q77.859375 257.5 77.859375 257.92188L76.765625 257.92188Q76.765625 257.4375 77.09375 257.0Q77.4375 256.5625 78.015625 256.3125Q78.59375 256.04688 79.28125 256.04688Q80.390625 256.04688 81.0 256.59375Q81.625 257.14062 81.65625 258.09375L81.65625 261.01562Q81.65625 261.89062 81.875 262.40625L81.875 262.5L80.734375 262.5ZM78.9375 261.67188Q79.453125 261.67188 79.90625 261.40625Q80.359375 261.14062 80.5625 260.71875L80.5625 259.42188L79.71875 259.42188Q77.71875 259.42188 77.71875 260.59375Q77.71875 261.09375 78.0625 261.39062Q78.40625 261.67188 78.9375 261.67188ZM89.5 258.70312Q88.0625 258.28125 87.390625 257.67188Q86.734375 257.0625 86.734375 256.17188Q86.734375 255.17188 87.53125 254.51562Q88.34375 253.84375 89.640625 253.84375Q90.515625 253.84375 91.203125 254.1875Q91.890625 254.53125 92.265625 255.125Q92.65625 255.71875 92.65625 256.4375L91.515625 256.4375Q91.515625 255.65625 91.015625 255.21875Q90.53125 254.78125 89.640625 254.78125Q88.8125 254.78125 88.34375 255.15625Q87.875 255.51562 87.875 256.15625Q87.875 256.6875 88.3125 257.04688Q88.765625 257.40625 89.828125 257.70312Q90.890625 258.0 91.484375 258.35938Q92.09375 258.71875 92.375 259.20312Q92.671875 259.6875 92.671875 260.32812Q92.671875 261.375 91.859375 262.0Q91.046875 262.625 89.703125 262.625Q88.8125 262.625 88.046875 262.28125Q87.296875 261.9375 86.875 261.35938Q86.46875 260.76562 86.46875 260.03125L87.59375 260.03125Q87.59375 260.79688 88.171875 261.25Q88.75 261.70312 89.703125 261.70312Q90.59375 261.70312 91.0625 261.34375Q91.53125 260.96875 91.53125 260.34375Q91.53125 259.71875 91.09375 259.375Q90.65625 259.03125 89.5 258.70312ZM95.296875 254.625L95.296875 256.15625L96.46875 256.15625L96.46875 257.0L95.296875 257.0L95.296875 260.92188Q95.296875 261.3125 95.453125 261.5Q95.609375 261.6875 95.984375 261.6875Q96.171875 261.6875 96.5 261.625L96.5 262.5Q96.078125 262.625 95.671875 262.625Q94.953125 262.625 94.578125 262.1875Q94.203125 261.73438 94.203125 260.92188L94.203125 257.0L93.046875 257.0L93.046875 256.15625L94.203125 256.15625L94.203125 254.625L95.296875 254.625ZM100.890625 257.125Q100.640625 257.09375 100.359375 257.09375Q99.28125 257.09375 98.90625 258.0L98.90625 262.5L97.828125 262.5L97.828125 256.15625L98.875 256.15625L98.890625 256.89062Q99.421875 256.04688 100.40625 256.04688Q100.71875 256.04688 100.890625 256.125L100.890625 257.125ZM105.734375 261.875Q105.109375 262.625 103.875 262.625Q102.859375 262.625 102.328125 262.03125Q101.796875 261.4375 101.796875 260.28125L101.796875 256.15625L102.875 256.15625L102.875 260.25Q102.875 261.70312 104.046875 261.70312Q105.296875 261.70312 105.703125 260.76562L105.703125 256.15625L106.796875 256.15625L106.796875 262.5L105.765625 262.5L105.734375 261.875ZM111.359375 261.73438Q111.9375 261.73438 112.375 261.39062Q112.8125 261.03125 112.859375 260.5L113.890625 260.5Q113.859375 261.04688 113.5 261.54688Q113.15625 262.03125 112.578125 262.32812Q112.015625 262.625 111.359375 262.625Q110.0625 262.625 109.296875 261.76562Q108.546875 260.89062 108.546875 259.39062L108.546875 259.20312Q108.546875 258.28125 108.875 257.5625Q109.21875 256.84375 109.84375 256.45312Q110.484375 256.04688 111.359375 256.04688Q112.421875 256.04688 113.125 256.6875Q113.84375 257.3125 113.890625 258.34375L112.859375 258.34375Q112.8125 257.71875 112.390625 257.32812Q111.96875 256.9375 111.359375 256.9375Q110.53125 256.9375 110.078125 257.53125Q109.625 258.125 109.625 259.25L109.625 259.45312Q109.625 260.54688 110.078125 261.14062Q110.53125 261.73438 111.359375 261.73438ZM116.296875 254.625L116.296875 256.15625L117.46875 256.15625L117.46875 257.0L116.296875 257.0L116.296875 260.92188Q116.296875 261.3125 116.453125 261.5Q116.609375 261.6875 116.984375 261.6875Q117.171875 261.6875 117.5 261.625L117.5 262.5Q117.078125 262.625 116.671875 262.625Q115.953125 262.625 115.578125 262.1875Q115.203125 261.73438 115.203125 260.92188L115.203125 257.0L114.046875 257.0L114.046875 256.15625L115.203125 256.15625L115.203125 254.625L116.296875 254.625ZM122.734375 261.875Q122.109375 262.625 120.875 262.625Q119.859375 262.625 119.328125 262.03125Q118.796875 261.4375 118.796875 260.28125L118.796875 256.15625L119.875 256.15625L119.875 260.25Q119.875 261.70312 121.046875 261.70312Q122.296875 261.70312 122.703125 260.76562L122.703125 256.15625L123.796875 256.15625L123.796875 262.5L122.765625 262.5L122.734375 261.875ZM128.89062 257.125Q128.64062 257.09375 128.35938 257.09375Q127.28125 257.09375 126.90625 258.0L126.90625 262.5L125.828125 262.5L125.828125 256.15625L126.875 256.15625L126.890625 256.89062Q127.421875 256.04688 128.40625 256.04688Q128.71875 256.04688 128.89062 256.125L128.89062 257.125ZM132.45312 262.625Q131.15625 262.625 130.34375 261.78125Q129.54688 260.92188 129.54688 259.5L129.54688 259.3125Q129.54688 258.35938 129.90625 257.625Q130.26562 256.875 130.90625 256.46875Q131.5625 256.04688 132.3125 256.04688Q133.54688 256.04688 134.23438 256.85938Q134.92188 257.67188 134.92188 259.1875L134.92188 259.64062L130.625 259.64062Q130.65625 260.57812 131.17188 261.15625Q131.70312 261.73438 132.51562 261.73438Q133.07812 261.73438 133.46875 261.5Q133.875 261.26562 134.1875 260.875L134.84375 261.39062Q134.04688 262.625 132.45312 262.625ZM132.3125 256.9375Q131.65625 256.9375 131.20312 257.42188Q130.76562 257.89062 130.67188 258.75L133.84375 258.75L133.84375 258.67188Q133.79688 257.84375 133.39062 257.39062Q133.0 256.9375 132.3125 256.9375ZM139.51562 260.8125Q139.51562 260.375 139.17188 260.14062Q138.84375 259.89062 138.01562 259.71875Q137.20312 259.54688 136.71875 259.29688Q136.23438 259.04688 136.0 258.71875Q135.78125 258.375 135.78125 257.90625Q135.78125 257.125 136.4375 256.59375Q137.09375 256.04688 138.125 256.04688Q139.20312 256.04688 139.85938 256.60938Q140.53125 257.15625 140.53125 258.01562L139.45312 258.01562Q139.45312 257.57812 139.0625 257.26562Q138.6875 256.9375 138.125 256.9375Q137.53125 256.9375 137.1875 257.20312Q136.85938 257.45312 136.85938 257.85938Q136.85938 258.25 137.17188 258.45312Q137.48438 258.65625 138.29688 258.84375Q139.10938 259.01562 139.60938 259.26562Q140.10938 259.51562 140.34375 259.875Q140.59375 260.23438 140.59375 260.73438Q140.59375 261.59375 139.90625 262.10938Q139.23438 262.625 138.15625 262.625Q137.39062 262.625 136.79688 262.35938Q136.21875 262.07812 135.89062 261.59375Q135.5625 261.10938 135.5625 260.54688L136.64062 260.54688Q136.67188 261.09375 137.07812 261.42188Q137.48438 261.73438 138.15625 261.73438Q138.76562 261.73438 139.14062 261.48438Q139.51562 261.23438 139.51562 260.8125Z" fill-rule="nonzero"/><path stroke="#cccccc" stroke-width="1.0" stroke-linecap="butt" d="M307.0 258.0L210.0 161.0" fill-rule="nonzero"/><path fill="#000000" d="M106.265625 112.796875Q106.109375 114.140625 105.265625 114.890625Q104.421875 115.625 103.03125 115.625Q101.515625 115.625 100.609375 114.546875Q99.703125 113.453125 99.703125 111.625L99.703125 110.8125Q99.703125 109.625 100.125 108.71875Q100.546875 107.8125 101.328125 107.328125Q102.109375 106.84375 103.125 106.84375Q104.484375 106.84375 105.296875 107.609375Q106.125 108.375 106.265625 109.703125L105.140625 109.703125Q104.984375 108.6875 104.5 108.234375Q104.015625 107.78125 103.125 107.78125Q102.046875 107.78125 101.4375 108.578125Q100.828125 109.375 100.828125 110.84375L100.828125 111.671875Q100.828125 113.0625 101.40625 113.890625Q101.984375 114.703125 103.03125 114.703125Q103.96875 114.703125 104.46875 114.28125Q104.96875 113.84375 105.140625 112.796875L106.265625 112.796875ZM107.53125 112.265625Q107.53125 111.34375 107.890625 110.59375Q108.265625 109.84375 108.921875 109.453125Q109.578125 109.046875 110.40625 109.046875Q111.703125 109.046875 112.5 109.9375Q113.3125 110.828125 113.3125 112.328125L113.3125 112.40625Q113.3125 113.328125 112.953125 114.0625Q112.59375 114.796875 111.9375 115.21875Q111.28125 115.625 110.421875 115.625Q109.140625 115.625 108.328125 114.734375Q107.53125 113.828125 107.53125 112.34375L107.53125 112.265625ZM108.625 112.40625Q108.625 113.453125 109.109375 114.09375Q109.609375 114.734375 110.421875 114.734375Q111.25 114.734375 111.734375 114.09375Q112.21875 113.4375 112.21875 112.265625Q112.21875 111.234375 111.71875 110.59375Q111.234375 109.9375 110.40625 109.9375Q109.609375 109.9375 109.109375 110.578125Q108.625 111.203125 108.625 112.40625ZM115.84375 109.15625L115.875 109.859375Q116.5625 109.046875 117.75 109.046875Q119.078125 109.046875 119.5625 110.0625Q119.875 109.609375 120.375 109.328125Q120.890625 109.046875 121.578125 109.046875Q123.671875 109.046875 123.703125 111.25L123.703125 115.5L122.625 115.5L122.625 111.3125Q122.625 110.640625 122.3125 110.3125Q122.0 109.96875 121.265625 109.96875Q120.65625 109.96875 120.25 110.328125Q119.859375 110.6875 119.796875 111.296875L119.796875 115.5L118.71875 115.5L118.71875 111.34375Q118.71875 109.96875 117.359375 109.96875Q116.296875 109.96875 115.90625 110.875L115.90625 115.5L114.8125 115.5L114.8125 109.15625L115.84375 109.15625ZM131.17188 112.40625Q131.17188 113.84375 130.51562 114.734375Q129.85938 115.625 128.71875 115.625Q127.5625 115.625 126.90625 114.890625L126.90625 117.9375L125.828125 117.9375L125.828125 109.15625L126.8125 109.15625L126.859375 109.859375Q127.53125 109.046875 128.70312 109.046875Q129.84375 109.046875 130.5 109.90625Q131.17188 110.765625 131.17188 112.296875L131.17188 112.40625ZM130.09375 112.28125Q130.09375 111.203125 129.625 110.59375Q129.17188 109.96875 128.375 109.96875Q127.390625 109.96875 126.90625 110.828125L126.90625 113.859375Q127.390625 114.734375 128.39062 114.734375Q129.17188 114.734375 129.625 114.125Q130.09375 113.5 130.09375 112.28125ZM136.73438 114.875Q136.10938 115.625 134.875 115.625Q133.85938 115.625 133.32812 115.03125Q132.79688 114.4375 132.79688 113.28125L132.79688 109.15625L133.875 109.15625L133.875 113.25Q133.875 114.703125 135.04688 114.703125Q136.29688 114.703125 136.70312 113.765625L136.70312 109.15625L137.79688 109.15625L137.79688 115.5L136.76562 115.5L136.73438 114.875ZM141.29688 107.625L141.29688 109.15625L142.46875 109.15625L142.46875 110.0L141.29688 110.0L141.29688 113.921875Q141.29688 114.3125 141.45312 114.5Q141.60938 114.6875 141.98438 114.6875Q142.17188 114.6875 142.5 114.625L142.5 115.5Q142.07812 115.625 141.67188 115.625Q140.95312 115.625 140.57812 115.1875Q140.20312 114.734375 140.20312 113.921875L140.20312 110.0L139.04688 110.0L139.04688 109.15625L140.20312 109.15625L140.20312 107.625L141.29688 107.625ZM146.45312 115.625Q145.15625 115.625 144.34375 114.78125Q143.54688 113.921875 143.54688 112.5L143.54688 112.3125Q143.54688 111.359375 143.90625 110.625Q144.26562 109.875 144.90625 109.46875Q145.5625 109.046875 146.3125 109.046875Q147.54688 109.046875 148.23438 109.859375Q148.92188 110.671875 148.92188 112.1875L148.92188 112.640625L144.625 112.640625Q144.65625 113.578125 145.17188 114.15625Q145.70312 114.734375 146.51562 114.734375Q147.07812 114.734375 147.46875 114.5Q147.875 114.265625 148.1875 113.875L148.84375 114.390625Q148.04688 115.625 146.45312 115.625ZM146.3125 109.9375Q145.65625 109.9375 145.20312 110.421875Q144.76562 110.890625 144.67188 111.75L147.84375 111.75L147.84375 111.671875Q147.79688 110.84375 147.39062 110.390625Q147.0 109.9375 146.3125 109.9375ZM152.89062 110.125Q152.64062 110.09375 152.35938 110.09375Q151.28125 110.09375 150.90625 111.0L150.90625 115.5L149.82812 115.5L149.82812 109.15625L150.875 109.15625L150.89062 109.890625Q151.42188 109.046875 152.40625 109.046875Q152.71875 109.046875 152.89062 109.125L152.89062 110.125ZM161.70312 113.265625L158.125 113.265625L157.32812 115.5L156.17188 115.5L159.42188 106.96875L160.40625 106.96875L163.67188 115.5L162.51562 115.5L161.70312 113.265625ZM158.46875 112.34375L161.375 112.34375L159.92188 108.359375L158.46875 112.34375ZM167.89062 110.125Q167.64062 110.09375 167.35938 110.09375Q166.28125 110.09375 165.90625 111.0L165.90625 115.5L164.82812 115.5L164.82812 109.15625L165.875 109.15625L165.89062 109.890625Q166.42188 109.046875 167.40625 109.046875Q167.71875 109.046875 167.89062 109.125L167.89062 110.125ZM171.35938 114.734375Q171.9375 114.734375 172.375 114.390625Q172.8125 114.03125 172.85938 113.5L173.89062 113.5Q173.85938 114.046875 173.5 114.546875Q173.15625 115.03125 172.57812 115.328125Q172.01562 115.625 171.35938 115.625Q170.0625 115.625 169.29688 114.765625Q168.54688 113.890625 168.54688 112.390625L168.54688 112.203125Q168.54688 111.28125 168.875 110.5625Q169.21875 109.84375 169.84375 109.453125Q170.48438 109.046875 171.35938 109.046875Q172.42188 109.046875 173.125 109.6875Q173.84375 110.3125 173.89062 111.34375L172.85938 111.34375Q172.8125 110.71875 172.39062 110.328125Q171.96875 109.9375 171.35938 109.9375Q170.53125 109.9375 170.07812 110.53125Q169.625 111.125 169.625 112.25L169.625 112.453125Q169.625 113.546875 170.07812 114.140625Q170.53125 114.734375 171.35938 114.734375ZM175.90625 109.921875Q176.625 109.046875 177.78125 109.046875Q179.79688 109.046875 179.8125 111.3125L179.8125 115.5L178.71875 115.5L178.71875 111.296875Q178.71875 110.625 178.40625 110.296875Q178.10938 109.96875 177.45312 109.96875Q176.92188 109.96875 176.51562 110.25Q176.125 110.53125 175.90625 110.984375L175.90625 115.5L174.82812 115.5L174.82812 106.5L175.90625 106.5L175.90625 109.921875ZM183.0 115.5L181.92188 115.5L181.92188 109.15625L183.0 109.15625L183.0 115.5ZM181.82812 107.484375Q181.82812 107.21875 181.98438 107.03125Q182.15625 106.84375 182.46875 106.84375Q182.78125 106.84375 182.9375 107.03125Q183.10938 107.21875 183.10938 107.484375Q183.10938 107.734375 182.9375 107.921875Q182.78125 108.09375 182.46875 108.09375Q182.15625 108.09375 181.98438 107.921875Q181.82812 107.734375 181.82812 107.484375ZM186.29688 107.625L186.29688 109.15625L187.46875 109.15625L187.46875 110.0L186.29688 110.0L186.29688 113.921875Q186.29688 114.3125 186.45312 114.5Q186.60938 114.6875 186.98438 114.6875Q187.17188 114.6875 187.5 114.625L187.5 115.5Q187.07812 115.625 186.67188 115.625Q185.95312 115.625 185.57812 115.1875Q185.20312 114.734375 185.20312 113.921875L185.20312 110.0L184.04688 110.0L184.04688 109.15625L185.20312 109.15625L185.20312 107.625L186.29688 107.625ZM191.45312 115.625Q190.15625 115.625 189.34375 114.78125Q188.54688 113.921875 188.54688 112.5L188.54688 112.3125Q188.54688 111.359375 188.90625 110.625Q189.26562 109.875 189.90625 109.46875Q190.5625 109.046875 191.3125 109.046875Q192.54688 109.046875 193.23438 109.859375Q193.92188 110.671875 193.92188 112.1875L193.92188 112.640625L189.625 112.640625Q189.65625 113.578125 190.17188 114.15625Q190.70312 114.734375 191.51562 114.734375Q192.07812 114.734375 192.46875 114.5Q192.875 114.265625 193.1875 113.875L193.84375 114.390625Q193.04688 115.625 191.45312 115.625ZM191.3125 109.9375Q190.65625 109.9375 190.20312 110.421875Q189.76562 110.890625 189.67188 111.75L192.84375 111.75L192.84375 111.671875Q192.79688 110.84375 192.39062 110.390625Q192.0 109.9375 191.3125 109.9375ZM197.35938 114.734375Q197.9375 114.734375 198.375 114.390625Q198.8125 114.03125 198.85938 113.5L199.89062 113.5Q199.85938 114.046875 199.5 114.546875Q199.15625 115.03125 198.57812 115.328125Q198.01562 115.625 197.35938 115.625Q196.0625 115.625 195.29688 114.765625Q194.54688 113.890625 194.54688 112.390625L194.54688 112.203125Q194.54688 111.28125 194.875 110.5625Q195.21875 109.84375 195.84375 109.453125Q196.48438 109.046875 197.35938 109.046875Q198.42188 109.046875 199.125 109.6875Q199.84375 110.3125 199.89062 111.34375L198.85938 111.34375Q198.8125 110.71875 198.39062 110.328125Q197.96875 109.9375 197.35938 109.9375Q196.53125 109.9375 196.07812 110.53125Q195.625 111.125 195.625 112.25L195.625 112.453125Q195.625 113.546875 196.07812 114.140625Q196.53125 114.734375 197.35938 114.734375ZM202.29688 107.625L202.29688 109.15625L203.46875 109.15625L203.46875 110.0L202.29688 110.0L202.29688 113.921875Q202.29688 114.3125 202.45312 114.5Q202.60938 114.6875 202.98438 114.6875Q203.17188 114.6875 203.5 114.625L203.5 115.5Q203.07812 115.625 202.67188 115.625Q201.95312 115.625 201.57812 115.1875Q201.20312 114.734375 201.20312 113.921875L201.20312 110.0L200.04688 110.0L200.04688 109.15625L201.20312 109.15625L201.20312 107.625L202.29688 107.625ZM208.73438 114.875Q208.10938 115.625 206.875 115.625Q205.85938 115.625 205.32812 115.03125Q204.79688 114.4375 204.79688 113.28125L204.79688 109.15625L205.875 109.15625L205.875 113.25Q205.875 114.703125 207.04688 114.703125Q208.29688 114.703125 208.70312 113.765625L208.70312 109.15625L209.79688 109.15625L209.79688 115.5L208.76562 115.5L208.73438 114.875ZM214.89062 110.125Q214.64062 110.09375 214.35938 110.09375Q213.28125 110.09375 212.90625 111.0L212.90625 115.5L211.82812 115.5L211.82812 109.15625L212.875 109.15625L212.89062 109.890625Q213.42188 109.046875 214.40625 109.046875Q214.71875 109.046875 214.89062 109.125L214.89062 110.125ZM218.45312 115.625Q217.15625 115.625 216.34375 114.78125Q215.54688 113.921875 215.54688 112.5L215.54688 112.3125Q215.54688 111.359375 215.90625 110.625Q216.26562 109.875 216.90625 109.46875Q217.5625 109.046875 218.3125 109.046875Q219.54688 109.046875 220.23438 109.859375Q220.92188 110.671875 220.92188 112.1875L220.92188 112.640625L216.625 112.640625Q216.65625 113.578125 217.17188 114.15625Q217.70312 114.734375 218.51562 114.734375Q219.07812 114.734375 219.46875 114.5Q219.875 114.265625 220.1875 113.875L220.84375 114.390625Q220.04688 115.625 218.45312 115.625ZM218.3125 109.9375Q217.65625 109.9375 217.20312 110.421875Q216.76562 110.890625 216.67188 111.75L219.84375 111.75L219.84375 111.671875Q219.79688 110.84375 219.39062 110.390625Q219.0 109.9375 218.3125 109.9375Z" fill-rule="nonzero"/><path stroke="#cccccc" stroke-width="1.0" stroke-linecap="butt" d="M307.0 258.0L307.0 120.0" fill-rule="nonzero"/><path stroke="#14b8a6" stroke-width="5.0" stroke-linecap="butt" stroke-opacity="0.7019608" d="M307.0 175.0C331.0 169.0 357.0 171.0 385.0 180.0C410.0 198.0 431.0 225.0 445.0 258.0C431.0 291.0 410.0 318.0 385.0 336.0C367.0 361.0 340.0 382.0 307.0 396.0C276.0 373.0 257.0 345.0 249.0 316.0C220.0 308.0 192.0 289.0 169.0 258.0C192.0 227.0 220.0 208.0 249.0 200.0C266.0 186.0 286.0 178.0 307.0 175.0Z" fill-rule="nonzero"/></svg>